<?xml version="1.0" encoding="iso-8859-1"?>
<!-- Generator: Adobe Illustrator 20.0.0, SVG Export Plug-In . SVG Version: 6.00 Build 0)  -->
<svg version="1.1" id="Layer_1" xmlns="http://www.w3.org/2000/svg" xmlns:xlink="http://www.w3.org/1999/xlink" x="0px" y="0px"
	 viewBox="0 0 68.311 27.711" style="enable-background:new 0 0 68.311 27.711;" xml:space="preserve">
<g>
	<path style="fill-rule:evenodd;clip-rule:evenodd;" d="M48.249,3.821c-7.982,2.401-10.648,13.251-2.105,18.801
		C41.741,17.017,41.632,9.55,48.249,3.821L48.249,3.821z"/>
	<path style="fill-rule:evenodd;clip-rule:evenodd;" d="M59.621,3.821c7.983,2.401,10.649,13.251,2.105,18.801
		C66.131,17.017,66.24,9.55,59.621,3.821L59.621,3.821z"/>
	<path style="fill-rule:evenodd;clip-rule:evenodd;" d="M52.552,22.2L52.318,4.849l1.59-1.263l1.543,1.122L55.265,22.2
		c5.858-4.861,6.623-11.905,2.806-17.865c6.193,5.418,5.593,14.614-1.871,19.736c1.736,0.654,3.553,0.821,5.425,0.655
		c-1.781,0.89-3.875,1.114-6.314,0.608l-1.397,1.646l-1.362-1.599c-2.329,0.349-4.437,0.113-6.36-0.608
		c2.044,0.111,3.86-0.111,5.425-0.702c-7.073-3.924-8.448-13.719-1.871-19.783C45.603,10.653,47.416,18.402,52.552,22.2L52.552,22.2
		z"/>
	<path style="fill-rule:evenodd;clip-rule:evenodd;" d="M57.09,1.272c-0.937,1.273-1.938,1.414-3.17,0.566
		c-1.198,0.828-2.277,0.708-3.21-0.557c0.066,2.213,1.743,2.895,3.2,1.829C55.515,4.25,57.067,3.382,57.09,1.272L57.09,1.272z"/>
</g>
<g>
	<g>
		<path d="M5.586,8.705c-0.057,0.998-0.346,1.856-0.867,2.574c-0.515,0.696-1.133,1.047-1.854,1.054
			c-0.375-0.016-0.672-0.139-0.891-0.37s-0.335-0.55-0.348-0.96c-0.003-0.648,0.21-1.352,0.639-2.111
			C2.346,8.739,2.395,8.69,2.411,8.746s0.014,0.112-0.005,0.169c-0.283,0.559-0.427,1.042-0.434,1.449
			c0.013,0.305,0.122,0.537,0.327,0.696c0.205,0.159,0.476,0.245,0.813,0.258c0.413,0,0.811-0.11,1.191-0.329
			c0.378-0.251,0.642-0.586,0.792-1.006c0.057-0.146,0.086-0.34,0.086-0.582c0-0.092-0.001-0.208-0.002-0.35
			C5.176,8.909,5.176,8.809,5.176,8.748C5.189,8.573,5.23,8.381,5.3,8.169c0.07-0.211,0.128-0.365,0.174-0.46
			S5.559,7.566,5.59,7.566c0.022,0,0.032,0.025,0.029,0.074C5.616,7.689,5.611,7.784,5.605,7.924
			C5.598,8.064,5.592,8.324,5.586,8.705z M4.146,9.173c0.013,0.063,0.008,0.133-0.014,0.209C4.109,9.459,4.074,9.544,4.025,9.637
			c-0.049,0.094-0.115,0.18-0.198,0.26C3.773,9.948,3.73,9.973,3.698,9.973c-0.019,0-0.063-0.028-0.131-0.083
			s-0.13-0.106-0.186-0.152C3.326,9.691,3.278,9.649,3.238,9.611c-0.04-0.038-0.06-0.07-0.06-0.095C3.22,9.43,3.25,9.365,3.269,9.32
			c0.063-0.143,0.119-0.255,0.165-0.338C3.48,8.899,3.552,8.777,3.65,8.615c0.057,0.047,0.128,0.104,0.212,0.169
			C3.947,8.849,4.012,8.91,4.058,8.967C4.104,9.025,4.133,9.093,4.146,9.173z"/>
		<path d="M6.754,7.986c-0.006,0.229-0.011,0.436-0.014,0.62C6.736,8.79,6.727,8.946,6.711,9.072
			C6.685,9.346,6.633,9.588,6.553,9.799c-0.08,0.211-0.142,0.352-0.188,0.422c-0.046,0.07-0.083,0.121-0.112,0.153
			c-0.035,0.032-0.062,0.042-0.081,0.031c-0.019-0.011-0.025-0.029-0.019-0.055c0-0.006,0.019-0.103,0.057-0.289
			C6.248,9.876,6.272,9.695,6.282,9.52c0.009-0.174,0.011-0.421,0.004-0.741C6.28,8.46,6.288,8.216,6.31,8.048
			c0.013-0.099,0.034-0.2,0.064-0.305c0.03-0.104,0.064-0.208,0.103-0.31s0.079-0.198,0.122-0.289
			c0.043-0.09,0.082-0.17,0.117-0.241C6.744,6.859,6.77,6.841,6.792,6.851C6.814,6.861,6.823,6.878,6.82,6.904
			C6.814,6.929,6.807,6.988,6.799,7.082C6.791,7.176,6.784,7.281,6.777,7.397C6.771,7.513,6.765,7.627,6.761,7.738
			C6.756,7.849,6.754,7.932,6.754,7.986z"/>
		<path d="M9.818,7.714C9.659,8.279,9.482,8.612,9.284,8.71C9.008,8.843,8.839,8.933,8.779,8.977c-0.06,0.047-0.1,0.084-0.119,0.109
			C8.596,9.175,8.534,9.29,8.474,9.43c-0.105,0.267-0.189,0.472-0.253,0.615c-0.104,0.219-0.26,0.375-0.467,0.467
			c-0.099,0.038-0.229,0.071-0.391,0.1c-0.168,0.035-0.3,0.052-0.396,0.052c-0.083,0.01-0.135-0.009-0.157-0.057
			c-0.006-0.028,0.025-0.068,0.095-0.119c0.025-0.019,0.08-0.06,0.162-0.122s0.23-0.16,0.443-0.293
			C7.676,9.962,7.754,9.91,7.745,9.916c0.184-0.134,0.312-0.248,0.381-0.343C8.148,9.544,8.223,9.385,8.35,9.096
			c0.13-0.289,0.229-0.477,0.295-0.563c0.067-0.089,0.171-0.18,0.314-0.272c0.054-0.028,0.148-0.078,0.281-0.147
			c0.118-0.057,0.2-0.106,0.248-0.148c0.044-0.038,0.102-0.121,0.171-0.248c0.07-0.124,0.119-0.185,0.148-0.181
			C9.837,7.547,9.84,7.606,9.818,7.714z M8.169,13.882c0,0.019,0.047,0.067,0.141,0.143s0.163,0.134,0.208,0.172
			c0.047,0.041,0.084,0.062,0.109,0.062c0.102,0,0.238-0.173,0.41-0.52c0.07,0.051,0.151,0.122,0.243,0.214
			c0.092,0.092,0.156,0.138,0.191,0.138c0.054,0,0.138-0.081,0.252-0.243c0.118-0.165,0.176-0.308,0.176-0.429
			c-0.006-0.102-0.064-0.21-0.174-0.326c-0.109-0.116-0.204-0.174-0.284-0.174c-0.025,0-0.077,0.065-0.155,0.195
			c-0.078,0.13-0.148,0.248-0.212,0.353c-0.054-0.076-0.133-0.165-0.236-0.265c-0.103-0.1-0.182-0.139-0.236-0.117
			c-0.028,0-0.108,0.123-0.238,0.367S8.169,13.841,8.169,13.882z"/>
		<path d="M10.676,7.986c-0.006,0.229-0.011,0.436-0.014,0.62c-0.003,0.185-0.013,0.34-0.029,0.467
			c-0.025,0.273-0.078,0.516-0.157,0.727c-0.08,0.211-0.142,0.352-0.188,0.422c-0.046,0.07-0.083,0.121-0.112,0.153
			c-0.035,0.032-0.062,0.042-0.081,0.031c-0.019-0.011-0.025-0.029-0.019-0.055c0-0.006,0.019-0.103,0.057-0.289
			c0.038-0.186,0.062-0.366,0.072-0.541c0.009-0.174,0.011-0.421,0.004-0.741c-0.006-0.319,0.002-0.563,0.024-0.731
			c0.013-0.099,0.034-0.2,0.064-0.305c0.03-0.104,0.064-0.208,0.103-0.31s0.079-0.198,0.122-0.289
			c0.043-0.09,0.082-0.17,0.117-0.241c0.029-0.044,0.054-0.062,0.076-0.052c0.022,0.009,0.032,0.027,0.029,0.052
			c-0.006,0.025-0.014,0.085-0.021,0.179c-0.008,0.094-0.015,0.199-0.021,0.315c-0.006,0.116-0.012,0.229-0.017,0.341
			C10.679,7.849,10.676,7.932,10.676,7.986z"/>
		<path d="M14.509,10.011c0-0.054-0.115-0.133-0.343-0.238c-0.232-0.108-0.348-0.24-0.348-0.396c0-0.111,0.025-0.238,0.074-0.379
			C13.941,8.857,14,8.723,14.07,8.596c0.013-0.022,0.032-0.038,0.06-0.048c0.027-0.009,0.054-0.014,0.081-0.014
			c0.027,0,0.051,0.005,0.074,0.014c0.022,0.01,0.035,0.025,0.038,0.048c0,0.044,0.036,0.089,0.107,0.133
			c0.071,0.044,0.144,0.093,0.217,0.146c0.073,0.052,0.125,0.112,0.157,0.179c0.032,0.073,0.047,0.181,0.047,0.324
			c0,0.209-0.027,0.424-0.081,0.643c-0.054,0.213-0.154,0.477-0.3,0.792c-0.232,0.486-0.547,0.874-0.944,1.163
			c-0.146,0.092-0.29,0.162-0.429,0.209c-0.152,0.051-0.316,0.076-0.491,0.076c-0.41,0-0.725-0.152-0.944-0.458
			c-0.188-0.26-0.281-0.594-0.281-1.001c0-0.181,0.038-0.417,0.114-0.71c0.076-0.283,0.156-0.527,0.238-0.734
			c0.089-0.213,0.166-0.393,0.229-0.539c0.019-0.035,0.046-0.088,0.081-0.16c0.035-0.071,0.079-0.164,0.133-0.279
			c0.038-0.07,0.072-0.133,0.103-0.19s0.055-0.108,0.074-0.152c0.048-0.086,0.084-0.127,0.11-0.124
			c0.035,0.006,0.044,0.043,0.028,0.109c-0.016,0.08-0.036,0.148-0.062,0.205c-0.226,0.521-0.381,0.885-0.467,1.091
			c-0.149,0.378-0.224,0.671-0.224,0.877c0,0.391,0.121,0.67,0.362,0.839c0.178,0.117,0.408,0.176,0.691,0.176
			c0.509,0,0.935-0.143,1.278-0.429C14.362,10.539,14.509,10.281,14.509,10.011z"/>
		<path d="M14.07,8.596c0.035-0.063,0.093-0.152,0.174-0.267C14.325,8.215,14.413,8.105,14.509,8c0.095-0.105,0.192-0.2,0.291-0.286
			c0.105-0.083,0.173-0.146,0.205-0.19c0.032-0.035,0.048-0.067,0.048-0.096c0-0.022-0.029-0.047-0.086-0.076
			C14.909,7.32,14.887,7.28,14.9,7.233l0.191-0.429c0.054-0.099,0.103-0.192,0.147-0.281c0.067-0.099,0.132-0.145,0.195-0.138
			c0.21,0.038,0.374,0.1,0.491,0.186c0.121,0.086,0.181,0.173,0.181,0.262c0,0.13-0.056,0.267-0.167,0.41
			c-0.111,0.152-0.227,0.26-0.348,0.324c-0.105,0.058-0.194,0.107-0.267,0.15s-0.133,0.077-0.181,0.103
			c-0.175,0.108-0.304,0.197-0.386,0.267c-0.083,0.07-0.171,0.16-0.267,0.269c-0.096,0.11-0.151,0.19-0.167,0.241
			C14.234,8.634,14.15,8.634,14.07,8.596z"/>
		<path d="M18.464,7.523c-0.003,0.124-0.009,0.276-0.019,0.456c-0.009,0.179-0.016,0.306-0.019,0.379
			c-0.009,0.251-0.035,0.46-0.076,0.629c-0.042,0.168-0.08,0.302-0.114,0.4c-0.029,0.095-0.069,0.208-0.122,0.336
			c-0.053,0.129-0.125,0.265-0.219,0.408s-0.188,0.259-0.284,0.348c-0.149,0.127-0.307,0.189-0.472,0.186
			c-0.085-0.003-0.164-0.025-0.233-0.066c-0.067-0.044-0.128-0.099-0.186-0.162c-0.051-0.042-0.083-0.068-0.095-0.081
			c-0.044-0.042-0.066-0.084-0.066-0.129c0-0.032,0.016-0.068,0.047-0.109c0.032-0.042,0.068-0.087,0.11-0.138
			c0.019-0.025,0.044-0.064,0.076-0.115s0.06-0.118,0.083-0.203c0.023-0.084,0.043-0.194,0.06-0.331
			c0.013-0.137,0.021-0.254,0.023-0.353l0.01-0.296c0.003-0.102,0.003-0.208,0-0.319c0.006-0.292,0.057-0.61,0.152-0.953
			c0.067-0.232,0.173-0.545,0.319-0.939c0.01-0.025,0.019-0.043,0.029-0.052c0.01-0.01,0.018-0.015,0.024-0.015
			c0.022,0.003,0.032,0.064,0.028,0.181c-0.003,0.057-0.009,0.149-0.019,0.276c-0.009,0.13-0.016,0.213-0.019,0.248l-0.104,1.239
			c-0.007,0.149-0.024,0.319-0.053,0.51c-0.032,0.184-0.078,0.364-0.138,0.539c-0.083,0.257-0.189,0.478-0.319,0.663
			c0.006,0.013,0.032,0.019,0.076,0.019l0.119,0.004c0.175,0.006,0.35-0.06,0.524-0.198s0.286-0.284,0.333-0.438
			c0.048-0.154,0.073-0.309,0.077-0.465c0.022-0.359,0.04-0.671,0.052-0.937c0.013-0.265,0.033-0.48,0.06-0.646
			c0.027-0.165,0.071-0.345,0.131-0.539c0.061-0.193,0.156-0.445,0.286-0.753c0.019-0.032,0.037-0.044,0.052-0.038
			c0.016,0.006,0.009,0.131-0.021,0.374C18.527,6.687,18.496,7.047,18.464,7.523z"/>
		<path d="M18.441,7.781c0,0.114,0.001,0.198,0.005,0.252c0,0.08,0.017,0.181,0.052,0.305c0.038,0.099,0.102,0.179,0.191,0.243
			c0.085,0.063,0.2,0.095,0.343,0.095c0.197,0,0.353-0.054,0.467-0.162c0.152-0.143,0.256-0.226,0.31-0.248
			c0.035-0.016,0.075-0.019,0.122-0.009c0.046,0.009,0.094,0.013,0.145,0.009c0.057,0,0.111-0.065,0.162-0.195
			c0.051-0.13,0.086-0.201,0.105-0.212s0.041-0.014,0.067-0.007c0.073,0.025,0.124,0.038,0.152,0.038
			c0.054,0,0.102-0.037,0.143-0.109c0.016-0.025,0.043-0.092,0.081-0.2c0.032-0.092,0.057-0.138,0.076-0.138
			c0.025,0,0.038,0.028,0.038,0.085c0,0.216-0.062,0.426-0.186,0.629c-0.13,0.203-0.262,0.305-0.396,0.305
			c-0.086,0.124-0.135,0.192-0.148,0.205c-0.085,0.099-0.164,0.148-0.233,0.148c-0.07-0.013-0.128-0.019-0.174-0.019
			c-0.046,0-0.096,0.013-0.15,0.038C19.55,8.86,19.429,8.99,19.251,9.225c-0.178,0.232-0.37,0.348-0.577,0.348
			c-0.226,0-0.391-0.1-0.496-0.3c-0.099-0.197-0.148-0.44-0.148-0.729c0.054-0.235,0.113-0.426,0.177-0.572
			c0.06-0.152,0.121-0.229,0.181-0.229C18.401,7.743,18.419,7.756,18.441,7.781z"/>
		<path d="M21.978,7.986c-0.006,0.229-0.011,0.436-0.014,0.62c-0.003,0.185-0.013,0.34-0.029,0.467
			c-0.025,0.273-0.078,0.516-0.157,0.727c-0.08,0.211-0.142,0.352-0.188,0.422c-0.046,0.07-0.083,0.121-0.112,0.153
			c-0.035,0.032-0.062,0.042-0.081,0.031c-0.019-0.011-0.025-0.029-0.019-0.055c0-0.006,0.019-0.103,0.057-0.289
			c0.038-0.186,0.062-0.366,0.072-0.541c0.009-0.174,0.011-0.421,0.004-0.741c-0.006-0.319,0.002-0.563,0.024-0.731
			c0.013-0.099,0.034-0.2,0.064-0.305c0.03-0.104,0.064-0.208,0.103-0.31s0.079-0.198,0.122-0.289
			c0.043-0.09,0.082-0.17,0.117-0.241c0.029-0.044,0.054-0.062,0.076-0.052c0.022,0.009,0.032,0.027,0.029,0.052
			c-0.006,0.025-0.014,0.085-0.021,0.179c-0.008,0.094-0.015,0.199-0.021,0.315c-0.006,0.116-0.012,0.229-0.017,0.341
			C21.98,7.849,21.978,7.932,21.978,7.986z"/>
		<path d="M27.559,6.799c-0.013,0.079-0.033,0.156-0.06,0.231s-0.071,0.179-0.133,0.312c-0.062,0.134-0.1,0.21-0.112,0.229
			c-0.051,0.08-0.095,0.119-0.133,0.119c-0.029-0.019-0.054-0.037-0.076-0.055c-0.022-0.018-0.043-0.026-0.062-0.026
			c-0.08,0-0.185,0.033-0.314,0.098c-0.13,0.065-0.273,0.169-0.429,0.313c-0.156,0.143-0.277,0.276-0.365,0.4
			c-0.087,0.124-0.131,0.21-0.131,0.258c0,0.07,0.022,0.124,0.067,0.162c0.038,0.028,0.106,0.062,0.205,0.1
			c0.099,0.038,0.164,0.07,0.196,0.095c0.104,0.073,0.157,0.216,0.157,0.429c0,0.296-0.056,0.633-0.167,1.013
			c-0.111,0.379-0.257,0.709-0.438,0.989c-0.092,0.13-0.2,0.261-0.324,0.391c-0.124,0.13-0.257,0.241-0.4,0.333
			c-0.273,0.181-0.588,0.271-0.944,0.271c-0.403-0.006-0.71-0.143-0.92-0.41c-0.095-0.137-0.161-0.281-0.198-0.434
			c-0.037-0.153-0.055-0.297-0.055-0.434c0-0.175,0.013-0.345,0.038-0.512s0.065-0.334,0.119-0.503
			c0.083-0.273,0.183-0.537,0.3-0.791c0.118-0.254,0.213-0.459,0.286-0.615l0.224-0.477c0.025-0.054,0.052-0.106,0.081-0.157
			c0.028-0.051,0.054-0.076,0.076-0.076c0.032,0,0.048,0.025,0.05,0.076s-0.004,0.089-0.017,0.114
			c-0.035,0.092-0.065,0.169-0.09,0.231c-0.026,0.062-0.064,0.152-0.115,0.269c-0.051,0.118-0.105,0.245-0.164,0.381
			c-0.059,0.137-0.107,0.25-0.146,0.338c-0.188,0.496-0.281,0.868-0.281,1.116c0,0.26,0.093,0.467,0.279,0.62
			c0.186,0.152,0.447,0.229,0.784,0.229c0.279,0,0.55-0.065,0.81-0.195c0.194-0.099,0.356-0.218,0.486-0.357
			c0.13-0.14,0.229-0.271,0.298-0.394c0.068-0.122,0.103-0.232,0.103-0.331c0-0.061-0.045-0.105-0.136-0.133
			c-0.091-0.029-0.156-0.048-0.196-0.057c-0.04-0.01-0.085-0.027-0.136-0.053c-0.099-0.047-0.173-0.107-0.224-0.179
			s-0.076-0.169-0.076-0.293c0-0.188,0.061-0.426,0.184-0.715c0.123-0.289,0.295-0.573,0.517-0.853
			c0.181-0.229,0.346-0.415,0.496-0.558c0.08-0.073,0.181-0.156,0.305-0.25s0.245-0.174,0.362-0.241
			c0.143-0.083,0.256-0.13,0.338-0.143c0.035,0,0.059,0.014,0.072,0.043C27.562,6.746,27.565,6.774,27.559,6.799z"/>
		<path d="M29.156,8.196c-0.003,0.085-0.036,0.241-0.098,0.467s-0.143,0.472-0.243,0.739c-0.1,0.267-0.188,0.469-0.265,0.605
			s-0.16,0.241-0.25,0.313c-0.091,0.071-0.237,0.136-0.438,0.195c-0.202,0.059-0.364,0.099-0.486,0.119
			c-0.123,0.021-0.199,0.031-0.231,0.031c-0.032-0.003-0.051-0.016-0.057-0.038c-0.006-0.022,0.003-0.051,0.029-0.086
			c0.035-0.054,0.123-0.125,0.265-0.212c0.141-0.087,0.306-0.197,0.493-0.329c0.188-0.131,0.321-0.247,0.4-0.345
			c0.079-0.099,0.169-0.246,0.269-0.443s0.191-0.396,0.272-0.596s0.139-0.337,0.174-0.41c0.035-0.073,0.073-0.108,0.114-0.105
			C29.138,8.107,29.156,8.138,29.156,8.196z"/>
		<path d="M30.8,9.33c-0.111,0.308-0.214,0.536-0.31,0.682c-0.095,0.146-0.17,0.237-0.224,0.271
			c-0.054,0.035-0.135,0.072-0.243,0.112c-0.108,0.04-0.272,0.095-0.494,0.167c-0.221,0.072-0.352,0.107-0.393,0.107
			c-0.025,0-0.038-0.006-0.038-0.019c-0.025-0.035,0.106-0.149,0.396-0.343s0.476-0.321,0.56-0.381
			c0.084-0.06,0.17-0.148,0.257-0.265c0.087-0.116,0.152-0.247,0.193-0.393c-0.045-0.006-0.09,0.002-0.136,0.026
			c-0.046,0.024-0.091,0.036-0.136,0.036c-0.118-0.003-0.216-0.042-0.295-0.114c-0.08-0.073-0.113-0.154-0.1-0.243
			c0.013-0.054,0.031-0.117,0.055-0.188c0.024-0.071,0.074-0.185,0.15-0.341c0.076-0.155,0.153-0.284,0.231-0.386
			c0.078-0.102,0.155-0.153,0.231-0.153c0.13,0,0.239,0.056,0.326,0.167c0.087,0.111,0.131,0.245,0.131,0.4
			c0,0.08-0.005,0.158-0.015,0.236c-0.009,0.078-0.02,0.143-0.031,0.195c-0.011,0.053-0.027,0.119-0.048,0.2
			C30.849,9.184,30.826,9.26,30.8,9.33z"/>
		<path d="M32.492,8.281l-0.119,0.262l-0.176,0.486c-0.025,0.063-0.046,0.111-0.062,0.143c-0.022,0.051-0.056,0.072-0.1,0.062
			c-0.025-0.006-0.032-0.047-0.019-0.124c0.013-0.061,0.024-0.117,0.033-0.169c0.01-0.052,0.019-0.103,0.029-0.15
			c0.016-0.095,0.024-0.155,0.024-0.181c0-0.121-0.034-0.223-0.1-0.305c-0.07-0.083-0.17-0.124-0.3-0.124
			c-0.105,0.013-0.213,0.094-0.324,0.243c-0.13,0.194-0.286,0.37-0.467,0.529L30.705,9.12c-0.016-0.121-0.019-0.241-0.007-0.36
			s0.044-0.238,0.098-0.355c0.035,0.006,0.08,0.007,0.133,0.002c0.054-0.005,0.113-0.033,0.177-0.083
			c0.07-0.048,0.135-0.108,0.195-0.181c0.051-0.063,0.101-0.128,0.15-0.193c0.049-0.065,0.098-0.131,0.146-0.198
			c0.124-0.143,0.256-0.214,0.396-0.214c0.124,0,0.229,0.053,0.315,0.157c0.051,0.08,0.089,0.141,0.114,0.184
			s0.047,0.082,0.066,0.117c0.016,0.032,0.024,0.059,0.024,0.081c0,0.051,0,0.086-0.002,0.105c-0.001,0.019-0.004,0.037-0.007,0.052
			C32.499,8.249,32.496,8.265,32.492,8.281z"/>
		<path d="M33.312,6.613c0.042-0.029,0.087-0.041,0.138-0.036s0.089,0.017,0.114,0.036c0.143,0.143,0.253,0.261,0.332,0.355
			c0.078,0.094,0.117,0.177,0.117,0.25c0,0.06-0.01,0.116-0.029,0.167s-0.049,0.106-0.09,0.167c-0.092,0.13-0.195,0.195-0.31,0.195
			c-0.003,0-0.06-0.011-0.171-0.033c-0.089-0.022-0.152-0.033-0.19-0.033c-0.124,0-0.254,0.055-0.391,0.167
			c-0.149,0.118-0.262,0.262-0.338,0.434c-0.01,0.006-0.024,0.014-0.045,0.023c-0.021,0.01-0.044,0.017-0.071,0.021
			c-0.027,0.005-0.054,0.005-0.081,0c-0.027-0.004-0.052-0.02-0.074-0.045c0.146-0.286,0.258-0.483,0.336-0.591
			c0.078-0.108,0.157-0.209,0.238-0.305c0.081-0.095,0.152-0.181,0.212-0.257c0.035-0.047,0.057-0.083,0.067-0.104
			c0.035-0.111,0.077-0.199,0.126-0.262C33.249,6.697,33.287,6.648,33.312,6.613z"/>
		<path d="M33.305,12.035c0.119-0.233,0.196-0.351,0.231-0.351c0.07-0.028,0.172,0.025,0.305,0.16
			c0.134,0.135,0.205,0.241,0.214,0.317c0,0.102-0.055,0.248-0.167,0.438c-0.111,0.19-0.192,0.286-0.243,0.286
			c-0.019-0.009-0.085-0.051-0.198-0.126s-0.196-0.131-0.25-0.169c-0.047-0.032-0.071-0.065-0.071-0.1
			C33.126,12.42,33.186,12.268,33.305,12.035z M33.972,6.367c0.192-0.097,0.383-0.182,0.574-0.255
			c0.19-0.073,0.327-0.133,0.41-0.181c0.261-0.162,0.391-0.324,0.391-0.486c0-0.07-0.033-0.124-0.1-0.162
			c-0.073-0.035-0.157-0.065-0.252-0.09c-0.096-0.025-0.234-0.056-0.415-0.09c-0.181-0.035-0.331-0.049-0.448-0.041
			c-0.118,0.008-0.219,0.042-0.305,0.102c-0.089,0.061-0.174,0.156-0.255,0.286s-0.136,0.232-0.165,0.305
			c-0.016,0.054-0.014,0.084,0.005,0.09c0.038,0.019,0.09-0.017,0.157-0.109c0.083-0.092,0.132-0.143,0.147-0.153
			c0.054-0.035,0.145-0.052,0.272-0.052c0.133,0,0.28,0.019,0.441,0.055c0.16,0.037,0.241,0.068,0.241,0.093
			c0,0.006-0.143,0.078-0.429,0.214c-0.146,0.07-0.292,0.154-0.438,0.252c-0.14,0.099-0.249,0.189-0.327,0.272
			c-0.078,0.083-0.132,0.147-0.164,0.195c0.019,0.013,0.051,0.021,0.098,0.024c0.046,0.003,0.098-0.005,0.155-0.024
			C33.644,6.546,33.78,6.465,33.972,6.367z"/>
	</g>
	<g>
		<path d="M3.34,21.063c0-0.039-0.083-0.096-0.248-0.172c-0.167-0.077-0.251-0.173-0.251-0.285c0-0.08,0.018-0.171,0.054-0.272
			c0.035-0.103,0.078-0.199,0.128-0.291c0.009-0.016,0.023-0.027,0.043-0.034s0.039-0.01,0.059-0.01s0.037,0.003,0.053,0.01
			s0.025,0.019,0.027,0.034c0,0.032,0.026,0.064,0.078,0.097c0.051,0.032,0.104,0.066,0.156,0.104s0.09,0.081,0.113,0.129
			c0.023,0.053,0.034,0.131,0.034,0.233c0,0.151-0.02,0.306-0.058,0.464c-0.039,0.153-0.111,0.344-0.217,0.57
			c-0.167,0.351-0.394,0.63-0.68,0.839c-0.105,0.066-0.208,0.116-0.309,0.15c-0.11,0.037-0.228,0.056-0.354,0.056
			c-0.295,0-0.522-0.11-0.68-0.33c-0.135-0.188-0.203-0.429-0.203-0.722c0-0.13,0.027-0.301,0.083-0.512
			c0.055-0.204,0.112-0.38,0.172-0.529c0.064-0.153,0.119-0.282,0.165-0.388c0.014-0.025,0.033-0.063,0.059-0.115
			s0.057-0.118,0.096-0.201c0.027-0.05,0.052-0.096,0.074-0.138c0.022-0.041,0.04-0.077,0.053-0.109
			c0.035-0.063,0.061-0.092,0.079-0.09c0.025,0.005,0.032,0.031,0.021,0.079c-0.011,0.058-0.026,0.106-0.044,0.148
			c-0.163,0.375-0.275,0.638-0.337,0.786c-0.107,0.272-0.161,0.483-0.161,0.632c0,0.282,0.087,0.483,0.261,0.605
			c0.128,0.084,0.294,0.127,0.499,0.127c0.366,0,0.673-0.104,0.92-0.31C3.235,21.444,3.34,21.258,3.34,21.063z"/>
		<path d="M3.024,20.042c0.025-0.046,0.067-0.109,0.125-0.192c0.059-0.082,0.122-0.161,0.19-0.237
			c0.069-0.075,0.139-0.144,0.21-0.206c0.075-0.06,0.125-0.104,0.147-0.137c0.023-0.025,0.035-0.049,0.035-0.069
			c0-0.016-0.021-0.034-0.062-0.055c-0.042-0.022-0.057-0.052-0.048-0.086l0.138-0.31c0.039-0.07,0.074-0.138,0.106-0.202
			c0.048-0.071,0.095-0.104,0.141-0.1c0.151,0.027,0.27,0.072,0.354,0.134c0.087,0.062,0.131,0.125,0.131,0.189
			c0,0.094-0.041,0.192-0.121,0.295c-0.08,0.11-0.164,0.188-0.25,0.233c-0.076,0.042-0.14,0.078-0.192,0.108
			c-0.053,0.031-0.096,0.056-0.131,0.074c-0.126,0.078-0.219,0.142-0.278,0.192c-0.06,0.05-0.124,0.115-0.192,0.194
			c-0.068,0.079-0.109,0.137-0.12,0.173C3.142,20.07,3.081,20.07,3.024,20.042z"/>
		<path d="M6.192,19.27c-0.002,0.089-0.007,0.198-0.014,0.328c-0.007,0.129-0.011,0.221-0.014,0.272
			c-0.007,0.182-0.025,0.333-0.055,0.454s-0.058,0.218-0.083,0.288c-0.021,0.069-0.05,0.149-0.088,0.242
			c-0.038,0.093-0.09,0.191-0.158,0.294c-0.068,0.104-0.136,0.187-0.205,0.251c-0.107,0.092-0.221,0.137-0.34,0.134
			c-0.062-0.002-0.118-0.019-0.168-0.048c-0.048-0.032-0.093-0.071-0.134-0.117c-0.037-0.029-0.06-0.049-0.068-0.058
			c-0.032-0.03-0.048-0.062-0.048-0.093c0-0.023,0.012-0.05,0.034-0.079c0.023-0.03,0.049-0.063,0.079-0.1
			c0.014-0.019,0.032-0.046,0.055-0.083c0.023-0.036,0.043-0.085,0.06-0.146s0.031-0.141,0.043-0.239
			c0.009-0.099,0.015-0.183,0.017-0.254l0.007-0.213c0.002-0.073,0.002-0.15,0-0.23c0.005-0.211,0.042-0.439,0.11-0.688
			c0.048-0.167,0.125-0.393,0.23-0.677c0.007-0.018,0.014-0.03,0.021-0.037s0.013-0.011,0.017-0.011
			c0.016,0.002,0.023,0.046,0.021,0.131c-0.002,0.041-0.007,0.107-0.014,0.199c-0.007,0.094-0.011,0.153-0.014,0.179l-0.076,0.893
			c-0.004,0.108-0.017,0.23-0.038,0.368c-0.023,0.133-0.056,0.262-0.1,0.388c-0.06,0.186-0.136,0.345-0.23,0.478
			c0.005,0.01,0.023,0.015,0.055,0.015l0.086,0.003c0.126,0.005,0.252-0.043,0.378-0.143s0.206-0.205,0.24-0.316
			c0.035-0.11,0.053-0.223,0.055-0.335c0.016-0.259,0.029-0.483,0.038-0.675c0.009-0.191,0.023-0.347,0.043-0.466
			s0.051-0.248,0.095-0.388s0.112-0.321,0.206-0.543c0.014-0.022,0.026-0.032,0.038-0.027c0.012,0.005,0.006,0.095-0.015,0.27
			C6.237,18.666,6.214,18.926,6.192,19.27z"/>
		<path d="M6.175,19.455c0,0.082,0.001,0.144,0.003,0.182c0,0.058,0.013,0.131,0.038,0.221c0.028,0.07,0.074,0.129,0.138,0.175
			c0.062,0.046,0.144,0.068,0.247,0.068c0.142,0,0.254-0.038,0.337-0.116c0.11-0.104,0.185-0.163,0.223-0.179
			c0.025-0.012,0.055-0.014,0.088-0.007s0.068,0.009,0.104,0.007c0.042,0,0.081-0.047,0.117-0.141
			c0.037-0.095,0.062-0.146,0.075-0.153c0.014-0.008,0.03-0.01,0.048-0.005c0.053,0.019,0.089,0.027,0.11,0.027
			c0.039,0,0.073-0.026,0.103-0.079c0.012-0.019,0.031-0.066,0.059-0.145c0.023-0.066,0.041-0.1,0.055-0.1
			c0.019,0,0.028,0.021,0.028,0.063c0,0.155-0.045,0.307-0.134,0.453c-0.094,0.146-0.189,0.22-0.285,0.22
			c-0.062,0.09-0.097,0.139-0.106,0.147C7.36,20.165,7.304,20.2,7.254,20.2c-0.05-0.009-0.092-0.014-0.125-0.014
			c-0.034,0-0.069,0.01-0.108,0.027c-0.046,0.019-0.133,0.112-0.261,0.282c-0.128,0.167-0.267,0.251-0.416,0.251
			c-0.163,0-0.282-0.072-0.357-0.217c-0.071-0.142-0.106-0.317-0.106-0.525c0.039-0.17,0.081-0.307,0.127-0.412
			c0.043-0.11,0.087-0.165,0.131-0.165C6.146,19.428,6.159,19.437,6.175,19.455z"/>
		<path d="M8.724,19.603c-0.005,0.165-0.008,0.313-0.01,0.446c-0.002,0.133-0.009,0.245-0.021,0.337
			c-0.019,0.197-0.056,0.372-0.114,0.524c-0.057,0.152-0.103,0.253-0.136,0.304s-0.06,0.087-0.081,0.11
			c-0.025,0.022-0.044,0.03-0.059,0.021c-0.014-0.008-0.018-0.021-0.014-0.039c0-0.005,0.014-0.074,0.042-0.208
			c0.027-0.134,0.044-0.264,0.051-0.39s0.008-0.304,0.003-0.534c-0.004-0.23,0.001-0.406,0.018-0.527
			c0.009-0.071,0.024-0.145,0.046-0.22c0.021-0.076,0.046-0.15,0.074-0.224c0.027-0.073,0.057-0.143,0.087-0.208
			c0.031-0.065,0.059-0.123,0.084-0.174c0.021-0.031,0.039-0.044,0.055-0.037s0.023,0.02,0.021,0.037
			c-0.004,0.019-0.01,0.062-0.015,0.129c-0.006,0.068-0.011,0.144-0.016,0.228c-0.004,0.083-0.009,0.165-0.012,0.245
			S8.724,19.564,8.724,19.603z"/>
		<path d="M9.82,19.534c0.016-0.049,0.05-0.057,0.103-0.024c0.295,0.179,0.443,0.418,0.443,0.718
			c-0.012,0.225-0.059,0.421-0.143,0.59c-0.083,0.168-0.169,0.296-0.256,0.383c-0.149,0.151-0.364,0.263-0.646,0.333
			c-0.034,0.007-0.062,0.011-0.083,0.011c-0.027,0-0.041-0.007-0.041-0.021c0-0.025,0.041-0.067,0.124-0.127
			c0.165-0.115,0.319-0.245,0.464-0.393c0.14-0.14,0.209-0.232,0.209-0.278c0-0.118-0.13-0.285-0.392-0.498
			c-0.048-0.038-0.063-0.087-0.045-0.144C9.628,19.951,9.714,19.768,9.82,19.534z"/>
		<path d="M10.967,20.241c-0.005,0.088-0.014,0.166-0.028,0.235c-0.014,0.07-0.032,0.13-0.055,0.179
			c-0.023,0.05-0.052,0.086-0.088,0.11c-0.035,0.024-0.078,0.032-0.128,0.025c0.002-0.179,0.021-0.428,0.057-0.747
			c0.035-0.319,0.088-0.673,0.16-1.06c0.037-0.112,0.111-0.311,0.223-0.595c0.012-0.027,0.023-0.039,0.036-0.034
			s0.019,0.016,0.019,0.034c-0.007,0.14-0.036,0.407-0.086,0.801s-0.082,0.664-0.093,0.811
			C10.973,20.148,10.967,20.228,10.967,20.241z"/>
		<path d="M10.967,20.245c0,0.082,0.001,0.144,0.003,0.182c0,0.058,0.013,0.131,0.038,0.221c0.028,0.07,0.074,0.129,0.138,0.175
			c0.062,0.046,0.144,0.068,0.247,0.068c0.142,0,0.254-0.038,0.337-0.116c0.11-0.104,0.185-0.163,0.223-0.179
			c0.025-0.012,0.055-0.014,0.088-0.007s0.068,0.009,0.104,0.007c0.042,0,0.081-0.047,0.117-0.141
			c0.037-0.095,0.062-0.146,0.075-0.153c0.014-0.008,0.03-0.01,0.048-0.005c0.053,0.019,0.089,0.027,0.11,0.027
			c0.039,0,0.073-0.026,0.103-0.079c0.012-0.019,0.031-0.066,0.059-0.145c0.023-0.066,0.041-0.1,0.055-0.1
			c0.019,0,0.028,0.021,0.028,0.063c0,0.155-0.045,0.307-0.134,0.453c-0.094,0.146-0.189,0.22-0.285,0.22
			c-0.062,0.09-0.097,0.139-0.106,0.147c-0.062,0.071-0.118,0.106-0.168,0.106c-0.05-0.009-0.092-0.014-0.125-0.014
			c-0.034,0-0.069,0.01-0.108,0.027c-0.046,0.019-0.133,0.112-0.261,0.282c-0.128,0.167-0.267,0.251-0.416,0.251
			c-0.163,0-0.282-0.072-0.357-0.217c-0.071-0.142-0.106-0.317-0.106-0.525c0.039-0.17,0.081-0.307,0.127-0.412
			c0.043-0.11,0.087-0.165,0.131-0.165C10.939,20.218,10.951,20.227,10.967,20.245z M11.12,17.542c0-0.027,0.045-0.128,0.137-0.304
			c0.091-0.176,0.148-0.263,0.169-0.263c0.034,0,0.089,0.032,0.163,0.096c0.074,0.064,0.125,0.126,0.15,0.184
			c0.047-0.08,0.092-0.157,0.135-0.233c0.063-0.106,0.102-0.159,0.117-0.159c0.051,0,0.117,0.037,0.197,0.113
			c0.078,0.084,0.116,0.162,0.116,0.232c0,0.083-0.039,0.185-0.116,0.307c-0.08,0.118-0.137,0.177-0.171,0.177
			c-0.028,0-0.068-0.027-0.119-0.083c-0.071-0.078-0.13-0.135-0.178-0.17c-0.119,0.249-0.211,0.373-0.278,0.373
			c-0.015,0-0.073-0.041-0.173-0.123S11.12,17.557,11.12,17.542z M11.414,16.715c0-0.021,0.041-0.12,0.122-0.295
			c0.081-0.174,0.133-0.261,0.156-0.261c0.061,0,0.127,0.037,0.2,0.113c0.073,0.084,0.11,0.165,0.11,0.243
			c0,0.073-0.034,0.174-0.102,0.303s-0.118,0.193-0.15,0.193c-0.019,0-0.062-0.03-0.129-0.092c-0.067-0.061-0.118-0.104-0.153-0.131
			C11.432,16.762,11.414,16.737,11.414,16.715z"/>
		<path d="M14.138,19.754c-0.002,0.062-0.026,0.174-0.07,0.337c-0.045,0.162-0.103,0.34-0.175,0.532s-0.136,0.338-0.191,0.437
			c-0.055,0.099-0.115,0.173-0.18,0.225s-0.171,0.099-0.316,0.141c-0.146,0.043-0.263,0.071-0.351,0.086
			c-0.088,0.016-0.144,0.022-0.167,0.022c-0.023-0.002-0.037-0.011-0.042-0.027c-0.004-0.016,0.002-0.036,0.021-0.062
			c0.025-0.039,0.089-0.09,0.191-0.153c0.102-0.063,0.22-0.142,0.355-0.237c0.135-0.095,0.231-0.178,0.289-0.249
			c0.057-0.07,0.122-0.177,0.194-0.319c0.072-0.142,0.137-0.285,0.196-0.43c0.058-0.144,0.1-0.242,0.125-0.295
			c0.025-0.053,0.052-0.078,0.082-0.075C14.126,19.69,14.138,19.713,14.138,19.754z"/>
		<path d="M14.887,19.603c-0.005,0.165-0.008,0.313-0.01,0.446c-0.002,0.133-0.009,0.245-0.021,0.337
			c-0.019,0.197-0.056,0.372-0.114,0.524c-0.057,0.152-0.103,0.253-0.136,0.304s-0.06,0.087-0.081,0.11
			c-0.025,0.022-0.044,0.03-0.059,0.021c-0.014-0.008-0.018-0.021-0.014-0.039c0-0.005,0.014-0.074,0.042-0.208
			c0.027-0.134,0.044-0.264,0.051-0.39s0.008-0.304,0.003-0.534c-0.004-0.23,0.001-0.406,0.018-0.527
			c0.009-0.071,0.024-0.145,0.046-0.22c0.021-0.076,0.046-0.15,0.074-0.224c0.027-0.073,0.057-0.143,0.087-0.208
			c0.031-0.065,0.059-0.123,0.084-0.174c0.021-0.031,0.039-0.044,0.055-0.037s0.023,0.02,0.021,0.037
			c-0.004,0.019-0.01,0.062-0.015,0.129c-0.006,0.068-0.011,0.144-0.016,0.228c-0.004,0.083-0.009,0.165-0.012,0.245
			S14.887,19.564,14.887,19.603z"/>
		<path d="M16.622,20.571c-0.08,0.223-0.155,0.386-0.223,0.491c-0.069,0.105-0.123,0.171-0.162,0.196s-0.098,0.052-0.175,0.08
			c-0.078,0.029-0.196,0.069-0.355,0.121c-0.159,0.051-0.254,0.077-0.284,0.077c-0.018,0-0.027-0.005-0.027-0.014
			c-0.018-0.025,0.077-0.108,0.285-0.248s0.343-0.23,0.404-0.274c0.061-0.044,0.123-0.107,0.186-0.19
			c0.063-0.084,0.109-0.179,0.139-0.284c-0.032-0.004-0.065,0.002-0.098,0.02c-0.033,0.017-0.066,0.025-0.098,0.025
			c-0.085-0.002-0.156-0.029-0.213-0.082c-0.057-0.053-0.081-0.111-0.072-0.176c0.009-0.039,0.022-0.084,0.04-0.136
			c0.017-0.051,0.053-0.133,0.108-0.245c0.055-0.112,0.11-0.205,0.167-0.278s0.112-0.11,0.167-0.11c0.094,0,0.172,0.04,0.235,0.12
			c0.063,0.081,0.094,0.177,0.094,0.289c0,0.058-0.003,0.114-0.01,0.17c-0.007,0.057-0.014,0.104-0.022,0.141
			c-0.008,0.038-0.02,0.086-0.034,0.145C16.657,20.467,16.64,20.522,16.622,20.571z"/>
		<path d="M21.645,20.248c-0.014,0.056-0.028,0.114-0.042,0.176c-0.014,0.053-0.037,0.117-0.068,0.192
			c-0.032,0.071-0.067,0.121-0.104,0.151c-0.037,0.036-0.065,0.046-0.085,0.027c0.002-0.117,0.01-0.24,0.024-0.371
			s0.027-0.245,0.041-0.344c0-0.016-0.002-0.025-0.007-0.027c-0.009-0.002-0.018,0.001-0.027,0.011
			c-0.043,0.06-0.075,0.102-0.093,0.127c-0.073,0.103-0.137,0.192-0.192,0.268c-0.138,0.174-0.314,0.34-0.529,0.498
			c-0.21,0.156-0.435,0.278-0.673,0.368c-0.24,0.089-0.512,0.164-0.814,0.227c-0.295,0.063-0.609,0.096-0.941,0.096h-0.103
			c-0.188,0-0.353-0.011-0.495-0.034c-0.202-0.036-0.338-0.1-0.409-0.188c-0.073-0.087-0.112-0.219-0.117-0.396
			c0.002-0.151,0.013-0.312,0.031-0.48c0.019-0.17,0.05-0.244,0.096-0.224c0.014,0,0.024,0.046,0.031,0.138
			c0.007,0.091,0.041,0.173,0.103,0.243c0.128,0.14,0.435,0.21,0.92,0.21c0.261,0,0.473-0.007,0.636-0.021
			c0.765-0.064,1.393-0.25,1.883-0.557c0.227-0.133,0.406-0.294,0.54-0.484c0.094-0.135,0.17-0.309,0.23-0.519l0.096-0.402
			c0.011-0.048,0.065-0.167,0.162-0.357c0.027-0.062,0.051-0.113,0.072-0.154c0.021-0.041,0.036-0.071,0.045-0.09
			c0.011-0.029,0.027-0.045,0.048-0.048c0.021-0.002,0.029,0.018,0.024,0.059c-0.023,0.094-0.04,0.174-0.052,0.24
			c-0.13,0.669-0.202,1.099-0.213,1.288C21.65,20.04,21.645,20.166,21.645,20.248z M22.222,17.724
			c0.114-0.112,0.334-0.305,0.66-0.577c0.149-0.117,0.468-0.381,0.957-0.792c0.489-0.411,0.882-0.765,1.179-1.06
			c0.296-0.295,0.454-0.45,0.472-0.464c0.027-0.011,0.035,0.006,0.021,0.052c-0.034,0.08-0.084,0.185-0.151,0.313
			c-0.069,0.101-0.14,0.197-0.213,0.289c-0.083,0.105-0.164,0.202-0.244,0.292c-0.115,0.124-0.25,0.258-0.407,0.403
			s-0.468,0.408-0.933,0.789c-0.465,0.38-0.851,0.688-1.156,0.922c-0.306,0.235-0.463,0.346-0.472,0.332
			c-0.042-0.007-0.005-0.1,0.11-0.278C22.096,17.863,22.156,17.79,22.222,17.724z M25.032,15.099
			c-0.025,0.046-0.113,0.138-0.263,0.275c-0.15,0.138-0.354,0.308-0.613,0.512c-0.011,0.007-0.011-0.008,0-0.042
			c0.012-0.034,0.035-0.076,0.069-0.127c0.06-0.071,0.163-0.173,0.311-0.307c0.147-0.134,0.33-0.292,0.548-0.476
			C25.128,14.9,25.11,14.955,25.032,15.099z"/>
		<path d="M22.841,20.819c-0.069-0.011-0.121-0.011-0.155,0c-0.119,0.039-0.242,0.169-0.368,0.389
			c-0.135,0.22-0.286,0.33-0.454,0.33c-0.169-0.014-0.297-0.091-0.385-0.23c-0.087-0.14-0.131-0.312-0.134-0.516
			c0.039-0.133,0.083-0.248,0.13-0.345c0.048-0.098,0.104-0.164,0.168-0.201c0,0.229,0.056,0.396,0.168,0.498
			c0.084,0.075,0.183,0.113,0.295,0.113c0.156,0,0.284-0.068,0.385-0.206c0.076-0.101,0.14-0.173,0.194-0.217
			c0.054-0.043,0.105-0.064,0.153-0.064c0.004,0.009,0.012,0.041,0.024,0.098c0.011,0.056,0.017,0.105,0.017,0.149
			c0,0.046-0.004,0.084-0.014,0.113C22.861,20.757,22.852,20.787,22.841,20.819z M22.092,18.833c0-0.051,0.043-0.16,0.129-0.328
			c0.085-0.168,0.141-0.253,0.167-0.253c0.05-0.021,0.124,0.019,0.22,0.115c0.096,0.098,0.148,0.174,0.155,0.229
			c0,0.073-0.04,0.179-0.121,0.316c-0.08,0.138-0.138,0.206-0.175,0.206c-0.014-0.007-0.062-0.037-0.143-0.091
			c-0.082-0.054-0.142-0.095-0.181-0.122C22.109,18.882,22.092,18.859,22.092,18.833z"/>
		<path d="M22.841,20.368c0.145,0.037,0.249-0.003,0.313-0.12c0.032-0.057,0.057-0.103,0.076-0.136s0.029-0.053,0.031-0.06
			c0.048-0.076,0.093-0.13,0.136-0.163s0.089-0.05,0.139-0.05c0.078,0,0.132,0.02,0.162,0.058c0.025,0,0.047-0.021,0.065-0.064
			c0.018-0.042,0.034-0.063,0.048-0.063c0.06,0,0.089,0.05,0.089,0.148c0,0.084-0.023,0.167-0.069,0.247
			c-0.045,0.087-0.111,0.131-0.196,0.131c-0.023,0-0.051-0.01-0.086-0.028c-0.039-0.018-0.075-0.027-0.11-0.027
			c-0.062,0-0.126,0.05-0.192,0.147c-0.023,0.044-0.073,0.128-0.151,0.251c-0.051,0.087-0.097,0.143-0.139,0.167
			c-0.042,0.024-0.081,0.028-0.115,0.012c-0.025-0.075-0.042-0.15-0.052-0.225C22.78,20.52,22.797,20.445,22.841,20.368z
			 M23.731,21.822c-0.06,0.075-0.133,0.213-0.221,0.413c-0.088,0.201-0.13,0.342-0.125,0.425c0.146,0.082,0.22,0.169,0.22,0.261
			c0,0.066-0.021,0.129-0.062,0.186c-0.039,0.058-0.087,0.086-0.144,0.086c-0.06,0-0.103-0.027-0.131-0.082
			c-0.025-0.058-0.038-0.12-0.038-0.189c0-0.16,0.07-0.385,0.209-0.673C23.578,21.959,23.676,21.818,23.731,21.822z"/>
		<path d="M25.535,20.283c0.027-0.012,0.054-0.022,0.079-0.031c0.03,0.073,0.043,0.146,0.042,0.22
			c-0.002,0.073-0.016,0.146-0.042,0.217c-0.014,0.005-0.082,0.029-0.206,0.075c-0.124,0.046-0.2,0.076-0.23,0.09
			c-0.122,0.048-0.259,0.167-0.414,0.357c-0.155,0.189-0.288,0.354-0.4,0.491c-0.231,0.295-0.491,0.539-0.78,0.731
			c-0.066,0.039-0.141,0.079-0.223,0.12c-0.119,0.06-0.208,0.104-0.268,0.131c-0.05,0.025-0.088,0.03-0.113,0.017
			c-0.012-0.018-0.006-0.039,0.017-0.062c0.014-0.009,0.03-0.021,0.048-0.038c0.019-0.014,0.039-0.029,0.062-0.048l0.289-0.206
			c0.188-0.148,0.3-0.243,0.337-0.281c0.105-0.099,0.18-0.176,0.223-0.23c0.048-0.041,0.112-0.112,0.192-0.213
			c0.057-0.069,0.176-0.235,0.357-0.498c0.103-0.145,0.186-0.255,0.247-0.33c0.089-0.101,0.175-0.185,0.258-0.251
			c0.085-0.06,0.169-0.108,0.254-0.147C25.295,20.38,25.386,20.343,25.535,20.283z"/>
		<path d="M26.081,19.661c0,0.148-0.026,0.292-0.079,0.431s-0.108,0.25-0.167,0.334c-0.059,0.083-0.132,0.171-0.222,0.263
			c-0.018-0.01-0.033-0.03-0.044-0.063c-0.012-0.031-0.019-0.067-0.021-0.107c-0.002-0.04,0.001-0.083,0.01-0.128
			c0.009-0.044,0.028-0.086,0.055-0.125c0.087-0.062,0.13-0.111,0.13-0.147c0-0.027-0.016-0.066-0.048-0.117
			c-0.034-0.05-0.065-0.075-0.093-0.075c-0.023,0.014-0.05,0.023-0.083,0.03c-0.037,0.005-0.07,0.007-0.1,0.007
			c-0.055,0-0.104-0.019-0.148-0.058c-0.043-0.037-0.065-0.089-0.065-0.155c0-0.022,0.021-0.083,0.065-0.182
			c0.032-0.071,0.064-0.141,0.096-0.21c0.021-0.036,0.056-0.101,0.107-0.192c0.05-0.092,0.1-0.137,0.147-0.137
			c0.128,0,0.236,0.057,0.323,0.171C26.036,19.316,26.081,19.469,26.081,19.661z M25.521,17.525c0-0.051,0.043-0.16,0.129-0.328
			c0.086-0.169,0.141-0.253,0.167-0.253c0.05-0.021,0.124,0.018,0.22,0.115s0.148,0.174,0.155,0.229c0,0.073-0.04,0.179-0.12,0.316
			c-0.08,0.137-0.139,0.206-0.175,0.206c-0.014-0.007-0.062-0.037-0.143-0.092c-0.082-0.054-0.142-0.094-0.18-0.122
			C25.538,17.573,25.521,17.549,25.521,17.525z"/>
		<path d="M28.077,20.791c0.197,0,0.417-0.009,0.661-0.027c0.244-0.019,0.478-0.052,0.701-0.102
			c0.223-0.049,0.425-0.111,0.606-0.187c0.181-0.076,0.31-0.146,0.385-0.208c0.076-0.063,0.137-0.134,0.182-0.212
			c0.046-0.077,0.076-0.116,0.089-0.116c0.019,0,0.025,0.026,0.021,0.079c-0.009,0.073-0.039,0.172-0.089,0.295
			c-0.066,0.158-0.132,0.284-0.198,0.378c-0.065,0.095-0.145,0.175-0.239,0.241c-0.133,0.089-0.283,0.171-0.45,0.247
			c-0.146,0.06-0.307,0.113-0.481,0.161C29,21.41,28.737,21.46,28.479,21.49c-0.259,0.031-0.51,0.047-0.752,0.047
			c-0.282,0-0.497-0.012-0.646-0.034c-0.245-0.039-0.419-0.112-0.522-0.221c-0.094-0.084-0.141-0.199-0.141-0.343
			c0-0.058,0.008-0.139,0.024-0.244c0.016-0.105,0.035-0.211,0.057-0.316c0.021-0.105,0.038-0.175,0.05-0.208
			c0.011-0.033,0.028-0.05,0.051-0.05s0.037,0.021,0.043,0.061s0.012,0.104,0.019,0.19s0.073,0.166,0.199,0.237
			C27.106,20.726,27.511,20.787,28.077,20.791z M27.785,19.331c0-0.029,0.047-0.133,0.141-0.309
			c0.094-0.177,0.151-0.265,0.172-0.265c0.039-0.017,0.096,0.012,0.17,0.084c0.075,0.072,0.131,0.136,0.17,0.19
			c0.045-0.075,0.097-0.16,0.153-0.254s0.093-0.141,0.111-0.141c0.058,0,0.125,0.041,0.205,0.125s0.121,0.162,0.125,0.235
			c0,0.087-0.042,0.19-0.127,0.31c-0.082,0.116-0.143,0.175-0.182,0.175c-0.025,0-0.071-0.033-0.138-0.1s-0.125-0.118-0.175-0.154
			c-0.124,0.249-0.222,0.374-0.295,0.374c-0.018,0-0.044-0.015-0.079-0.045c-0.032-0.027-0.082-0.068-0.149-0.123
			C27.818,19.379,27.785,19.345,27.785,19.331z"/>
		<path d="M32.169,19.754c-0.002,0.062-0.026,0.174-0.07,0.337c-0.045,0.162-0.103,0.34-0.175,0.532s-0.136,0.338-0.191,0.437
			c-0.055,0.099-0.115,0.173-0.18,0.225s-0.171,0.099-0.316,0.141c-0.146,0.043-0.263,0.071-0.351,0.086
			c-0.088,0.016-0.144,0.022-0.167,0.022c-0.023-0.002-0.037-0.011-0.042-0.027c-0.004-0.016,0.002-0.036,0.021-0.062
			c0.025-0.039,0.089-0.09,0.191-0.153c0.102-0.063,0.22-0.142,0.355-0.237c0.135-0.095,0.231-0.178,0.289-0.249
			c0.057-0.07,0.122-0.177,0.194-0.319c0.072-0.142,0.137-0.285,0.196-0.43c0.058-0.144,0.1-0.242,0.125-0.295
			c0.025-0.053,0.052-0.078,0.082-0.075C32.156,19.69,32.169,19.713,32.169,19.754z"/>
		<path d="M32.918,19.603c-0.005,0.165-0.008,0.313-0.01,0.446c-0.002,0.133-0.009,0.245-0.021,0.337
			c-0.019,0.197-0.056,0.372-0.114,0.524c-0.057,0.152-0.103,0.253-0.136,0.304s-0.06,0.087-0.081,0.11
			c-0.025,0.022-0.044,0.03-0.059,0.021c-0.014-0.008-0.018-0.021-0.014-0.039c0-0.005,0.014-0.074,0.042-0.208
			c0.027-0.134,0.044-0.264,0.051-0.39s0.008-0.304,0.003-0.534c-0.004-0.23,0.001-0.406,0.018-0.527
			c0.009-0.071,0.024-0.145,0.046-0.22c0.021-0.076,0.046-0.15,0.074-0.224c0.027-0.073,0.057-0.143,0.087-0.208
			c0.031-0.065,0.059-0.123,0.084-0.174c0.021-0.031,0.039-0.044,0.055-0.037s0.023,0.02,0.021,0.037
			c-0.004,0.019-0.01,0.062-0.015,0.129c-0.006,0.068-0.011,0.144-0.016,0.228c-0.004,0.083-0.009,0.165-0.012,0.245
			S32.918,19.564,32.918,19.603z"/>
		<path d="M34.604,19.754c-0.002,0.062-0.026,0.174-0.07,0.337c-0.044,0.162-0.103,0.34-0.175,0.532s-0.136,0.338-0.19,0.437
			c-0.055,0.099-0.115,0.173-0.181,0.225c-0.065,0.052-0.17,0.099-0.316,0.141c-0.146,0.043-0.262,0.071-0.351,0.086
			c-0.088,0.016-0.144,0.022-0.167,0.022c-0.023-0.002-0.037-0.011-0.041-0.027c-0.005-0.016,0.002-0.036,0.021-0.062
			c0.025-0.039,0.088-0.09,0.19-0.153c0.102-0.063,0.221-0.142,0.355-0.237c0.135-0.095,0.231-0.178,0.289-0.249
			c0.057-0.07,0.122-0.177,0.194-0.319c0.072-0.142,0.138-0.285,0.196-0.43c0.059-0.144,0.1-0.242,0.125-0.295
			s0.053-0.078,0.083-0.075C34.591,19.69,34.604,19.713,34.604,19.754z M34.316,18.294c0-0.051,0.043-0.16,0.129-0.328
			c0.086-0.169,0.142-0.253,0.167-0.253c0.05-0.021,0.124,0.018,0.22,0.115s0.147,0.174,0.154,0.229c0,0.073-0.04,0.179-0.12,0.316
			c-0.08,0.137-0.139,0.206-0.175,0.206c-0.014-0.007-0.061-0.037-0.143-0.092c-0.081-0.054-0.142-0.094-0.18-0.121
			C34.333,18.343,34.316,18.32,34.316,18.294z"/>
		<path d="M35.693,20.571c-0.08,0.223-0.155,0.386-0.223,0.491c-0.069,0.105-0.123,0.171-0.162,0.196s-0.098,0.052-0.175,0.08
			c-0.078,0.029-0.196,0.069-0.355,0.121c-0.159,0.051-0.254,0.077-0.284,0.077c-0.018,0-0.027-0.005-0.027-0.014
			c-0.018-0.025,0.077-0.108,0.285-0.248s0.343-0.23,0.404-0.274c0.061-0.044,0.123-0.107,0.186-0.19
			c0.063-0.084,0.109-0.179,0.139-0.284c-0.032-0.004-0.065,0.002-0.098,0.02c-0.033,0.017-0.066,0.025-0.098,0.025
			c-0.085-0.002-0.156-0.029-0.213-0.082c-0.057-0.053-0.081-0.111-0.072-0.176c0.009-0.039,0.022-0.084,0.04-0.136
			c0.017-0.051,0.053-0.133,0.108-0.245c0.055-0.112,0.11-0.205,0.167-0.278s0.112-0.11,0.167-0.11c0.094,0,0.172,0.04,0.235,0.12
			c0.063,0.081,0.094,0.177,0.094,0.289c0,0.058-0.003,0.114-0.01,0.17c-0.007,0.057-0.014,0.104-0.022,0.141
			c-0.008,0.038-0.02,0.086-0.034,0.145C35.728,20.467,35.712,20.522,35.693,20.571z"/>
	</g>
</g>
<g>
</g>
<g>
</g>
<g>
</g>
<g>
</g>
<g>
</g>
<g>
</g>
</svg>
