<?xml version="1.0" encoding="iso-8859-1"?>
<!-- Generator: Adobe Illustrator 20.0.0, SVG Export Plug-In . SVG Version: 6.00 Build 0)  -->
<svg version="1.1" id="Layer_1" xmlns="http://www.w3.org/2000/svg" xmlns:xlink="http://www.w3.org/1999/xlink" x="0px" y="0px"
	 viewBox="0 0 43.271 19.609" style="enable-background:new 0 0 43.271 19.609;" xml:space="preserve">
<g>
	<g>
		<path d="M1.997,11.405c-0.159,0-0.301-0.01-0.426-0.028c-0.125-0.02-0.235-0.047-0.33-0.082c-0.191-0.074-0.323-0.183-0.395-0.326
			v0.001c-0.041-0.078-0.061-0.165-0.061-0.261c0-0.041,0.005-0.086,0.015-0.134c0.01-0.049,0.023-0.096,0.04-0.141
			c0.02-0.054,0.042-0.101,0.065-0.142c0.024-0.041,0.048-0.084,0.074-0.13l0.297,0.25c-0.013,0.018-0.027,0.04-0.044,0.068
			c-0.017,0.028-0.033,0.059-0.049,0.09s-0.028,0.063-0.039,0.094c-0.011,0.032-0.016,0.06-0.016,0.083
			c0,0.017,0.002,0.031,0.007,0.042c0.017,0.034,0.05,0.064,0.101,0.091s0.113,0.049,0.189,0.066
			c0.076,0.019,0.162,0.032,0.259,0.041c0.097,0.01,0.201,0.015,0.312,0.015c0.06,0,0.128-0.003,0.204-0.009
			c0.077-0.006,0.155-0.016,0.236-0.029c0.081-0.013,0.161-0.029,0.242-0.05c0.08-0.021,0.153-0.046,0.22-0.076
			c-0.01-0.039-0.022-0.077-0.036-0.113c-0.014-0.036-0.031-0.074-0.051-0.113c-0.021-0.039-0.044-0.081-0.072-0.126
			s-0.061-0.096-0.099-0.153l0.312-0.202c0.015,0.024,0.033,0.054,0.053,0.09c0.021,0.035,0.041,0.073,0.062,0.114
			s0.041,0.084,0.061,0.13c0.02,0.046,0.038,0.091,0.053,0.137c0.016,0.045,0.028,0.09,0.036,0.134
			c0.008,0.043,0.012,0.084,0.01,0.122c-0.004,0.07-0.029,0.133-0.073,0.188c-0.045,0.055-0.102,0.101-0.172,0.142
			c-0.069,0.04-0.148,0.074-0.235,0.103c-0.087,0.027-0.176,0.05-0.266,0.067c-0.09,0.017-0.177,0.028-0.261,0.036
			S2.061,11.405,1.997,11.405z M2.006,11.501l0.281,0.281l-0.281,0.281l-0.281-0.281L2.006,11.501z"/>
		<path d="M4.062,11.405c-0.104,0-0.192-0.013-0.267-0.039c-0.074-0.025-0.139-0.065-0.192-0.118
			c-0.034-0.033-0.06-0.069-0.078-0.106c-0.018-0.037-0.031-0.073-0.039-0.109c-0.008-0.036-0.013-0.069-0.014-0.102
			c-0.001-0.032-0.001-0.06-0.001-0.082v-0.02c0-0.031,0.001-0.076,0.003-0.135s0.002-0.128,0.002-0.207s0-0.166-0.001-0.262
			c0-0.096-0.003-0.19-0.007-0.285S3.458,9.754,3.451,9.667c-0.007-0.088-0.017-0.164-0.03-0.229l0.378-0.115
			c0.011,0.056,0.02,0.121,0.027,0.196c0.007,0.076,0.012,0.155,0.017,0.237c0.004,0.083,0.008,0.166,0.01,0.249
			c0.002,0.084,0.003,0.161,0.004,0.233c0,0.063-0.001,0.125-0.007,0.186c-0.005,0.061-0.01,0.119-0.013,0.177s-0.003,0.114,0,0.169
			c0.004,0.054,0.016,0.107,0.035,0.158c0.007,0.02,0.017,0.034,0.028,0.045c0.011,0.01,0.025,0.017,0.04,0.021
			s0.032,0.008,0.05,0.009c0.018,0.001,0.038,0.001,0.06,0.001h0.011c0.027,0,0.053,0.006,0.078,0.017
			c0.024,0.011,0.045,0.025,0.063,0.044c0.019,0.018,0.033,0.039,0.044,0.063c0.011,0.024,0.017,0.05,0.017,0.077
			c0,0.028-0.006,0.054-0.017,0.078c-0.011,0.024-0.025,0.046-0.044,0.064C4.185,11.365,4.164,11.38,4.14,11.39
			C4.115,11.4,4.09,11.405,4.062,11.405z"/>
		<path d="M3.851,11.205c0-0.028,0.005-0.054,0.015-0.078c0.01-0.024,0.024-0.045,0.042-0.064c0.018-0.018,0.04-0.032,0.064-0.042
			c0.024-0.011,0.051-0.016,0.079-0.016h0.096c0.061,0,0.119-0.002,0.175-0.008c0.056-0.005,0.105-0.016,0.148-0.032
			c0.043-0.016,0.078-0.039,0.104-0.069c0.027-0.03,0.041-0.069,0.042-0.119c0.001-0.019,0.001-0.034,0-0.047
			c0-0.012-0.002-0.026-0.007-0.044s-0.01-0.04-0.019-0.068c-0.008-0.028-0.019-0.068-0.033-0.119l0.368-0.104
			c0.016,0.041,0.031,0.095,0.044,0.161c0.013,0.066,0.023,0.14,0.03,0.219c0.001,0.025,0.004,0.052,0.009,0.078
			c0.004,0.027,0.011,0.053,0.021,0.075s0.023,0.041,0.04,0.057c0.017,0.015,0.039,0.021,0.066,0.021
			c0.028,0,0.054,0.005,0.079,0.016c0.024,0.01,0.046,0.024,0.064,0.042c0.018,0.019,0.032,0.04,0.043,0.064
			c0.011,0.024,0.016,0.05,0.016,0.078s-0.005,0.054-0.016,0.078s-0.025,0.046-0.043,0.064c-0.019,0.018-0.04,0.032-0.064,0.042
			c-0.024,0.011-0.05,0.016-0.077,0.016c-0.081,0-0.15-0.013-0.208-0.037c-0.058-0.025-0.107-0.058-0.148-0.098
			c-0.038,0.025-0.082,0.047-0.131,0.063s-0.102,0.03-0.158,0.041s-0.113,0.019-0.172,0.023c-0.059,0.004-0.118,0.007-0.175,0.007
			H4.051c-0.028,0-0.054-0.005-0.079-0.016c-0.024-0.01-0.046-0.024-0.064-0.042c-0.018-0.019-0.032-0.04-0.042-0.064
			C3.856,11.259,3.851,11.233,3.851,11.205z M5.108,9.986L4.865,10.23l-0.24-0.24l-0.238,0.237L4.141,9.983l0.243-0.244l0.24,0.24
			l0.238-0.237L5.108,9.986z"/>
		<path d="M4.934,11.206c0-0.028,0.005-0.055,0.015-0.079c0.01-0.024,0.025-0.045,0.044-0.064c0.019-0.018,0.041-0.032,0.067-0.042
			c0.026-0.011,0.055-0.016,0.086-0.016h0.071H5.28c0.045,0,0.096,0,0.15-0.002c0.055-0.001,0.108-0.005,0.159-0.013
			c0.051-0.007,0.097-0.018,0.138-0.032c0.041-0.014,0.071-0.034,0.089-0.06c0.025-0.038,0.038-0.083,0.038-0.133
			c0-0.017-0.001-0.033-0.004-0.051s-0.006-0.035-0.011-0.054c-0.006-0.021-0.018-0.047-0.037-0.077
			c-0.019-0.029-0.043-0.063-0.073-0.099c-0.03-0.035-0.063-0.073-0.102-0.113c-0.038-0.04-0.078-0.081-0.121-0.123
			c-0.043-0.042-0.088-0.083-0.136-0.125c-0.047-0.041-0.094-0.081-0.142-0.12l0.039-0.344l1.063-0.474l0.153,0.339l-0.84,0.39
			c0.042,0.029,0.084,0.063,0.128,0.103c0.044,0.04,0.086,0.083,0.128,0.13c0.041,0.047,0.08,0.097,0.116,0.149
			c0.036,0.052,0.068,0.105,0.095,0.16c0.027,0.055,0.048,0.11,0.064,0.166s0.023,0.11,0.022,0.163
			c-0.001,0.063-0.009,0.122-0.025,0.177s-0.036,0.103-0.06,0.146c-0.088,0.156-0.232,0.252-0.434,0.287l0.001-0.002
			c-0.023,0.005-0.044,0.008-0.065,0.009c-0.02,0.002-0.04,0.003-0.059,0.003l-0.409-0.001c-0.031,0-0.06-0.005-0.086-0.016
			c-0.026-0.01-0.048-0.024-0.067-0.042c-0.019-0.019-0.033-0.039-0.044-0.063C4.94,11.26,4.934,11.234,4.934,11.206z"/>
		<path d="M8.891,10.204c0.025-0.007,0.051-0.012,0.077-0.015c0.026-0.002,0.052-0.004,0.077-0.004c0.057,0,0.115,0.009,0.175,0.025
			c0.06,0.017,0.121,0.04,0.182,0.072l-0.141,0.371c-0.041-0.018-0.079-0.031-0.115-0.041c-0.036-0.01-0.07-0.015-0.103-0.015
			c-0.022,0-0.047,0.003-0.075,0.008c-0.027,0.002-0.056,0.01-0.087,0.023c-0.031,0.013-0.063,0.029-0.093,0.05
			S8.728,10.723,8.7,10.75c-0.028,0.026-0.054,0.055-0.076,0.084c-0.022,0.029-0.041,0.061-0.055,0.092
			c-0.015,0.031-0.022,0.063-0.024,0.092c-0.002,0.023,0.005,0.043,0.02,0.058s0.036,0.027,0.061,0.038
			c0.025,0.011,0.054,0.02,0.086,0.027c0.032,0.008,0.064,0.018,0.097,0.027l0.037,0.009c0.054,0.013,0.108,0.027,0.162,0.043
			c0.054,0.017,0.102,0.039,0.145,0.068c0.043,0.028,0.078,0.066,0.104,0.114c0.027,0.047,0.04,0.108,0.04,0.184
			c0,0.015,0,0.031-0.002,0.047c-0.001,0.017-0.003,0.034-0.007,0.052c-0.008,0.046-0.023,0.09-0.045,0.134
			c-0.022,0.043-0.05,0.084-0.083,0.124c-0.033,0.039-0.072,0.075-0.115,0.109s-0.091,0.065-0.143,0.092
			c-0.097,0.049-0.208,0.086-0.333,0.112s-0.259,0.04-0.402,0.04c-0.172,0-0.324-0.025-0.456-0.075
			C7.578,12.169,7.469,12.096,7.382,12c-0.066-0.079-0.114-0.165-0.145-0.259c-0.031-0.093-0.046-0.191-0.046-0.293
			c0-0.022,0.001-0.044,0.002-0.066c0.002-0.021,0.003-0.042,0.005-0.062c0.003-0.061,0.01-0.12,0.021-0.179
			c0.01-0.058,0.021-0.114,0.035-0.166s0.027-0.101,0.042-0.145s0.029-0.083,0.042-0.116c0.012-0.033,0.023-0.061,0.032-0.08
			c0.009-0.02,0.014-0.031,0.016-0.036l0.318,0.133c-0.021,0.05-0.042,0.099-0.061,0.146c-0.019,0.048-0.036,0.097-0.05,0.146
			c-0.015,0.051-0.027,0.103-0.037,0.159c-0.01,0.056-0.016,0.116-0.019,0.183c-0.001,0.009-0.001,0.019-0.002,0.03
			c-0.001,0.011-0.001,0.021-0.001,0.028c0,0.054,0.008,0.105,0.025,0.157s0.043,0.098,0.082,0.14
			c0.023,0.026,0.053,0.049,0.089,0.068c0.037,0.021,0.078,0.037,0.125,0.051s0.096,0.024,0.149,0.032
			c0.053,0.007,0.107,0.011,0.162,0.011c0.107,0,0.207-0.008,0.3-0.022s0.175-0.034,0.246-0.059
			c0.071-0.023,0.128-0.052,0.171-0.083c0.043-0.032,0.069-0.064,0.076-0.097c-0.002,0-0.007-0.001-0.015-0.003
			c-0.009-0.002-0.02-0.004-0.033-0.007c-0.013-0.003-0.028-0.007-0.044-0.01c-0.017-0.004-0.034-0.008-0.051-0.013l-0.068-0.015
			c-0.075-0.019-0.146-0.04-0.212-0.064c-0.066-0.023-0.124-0.056-0.173-0.095s-0.089-0.089-0.118-0.148
			c-0.029-0.059-0.044-0.135-0.044-0.225c0.004-0.097,0.024-0.191,0.061-0.283c0.036-0.092,0.085-0.176,0.146-0.252
			s0.134-0.141,0.216-0.194C8.707,10.26,8.796,10.223,8.891,10.204L8.891,10.204z"/>
		<path d="M10.19,11.405c-0.104,0-0.192-0.013-0.267-0.039c-0.074-0.025-0.139-0.065-0.192-0.118
			c-0.034-0.033-0.06-0.069-0.078-0.106c-0.018-0.037-0.031-0.073-0.039-0.109c-0.008-0.036-0.013-0.069-0.014-0.102
			c-0.001-0.032-0.001-0.06-0.001-0.082v-0.02c0-0.031,0.001-0.076,0.003-0.135s0.002-0.128,0.002-0.207s0-0.166-0.001-0.262
			c0-0.096-0.003-0.19-0.007-0.285S9.586,9.754,9.578,9.667c-0.007-0.088-0.017-0.164-0.03-0.229l0.378-0.115
			c0.011,0.056,0.02,0.121,0.027,0.196c0.007,0.076,0.012,0.155,0.017,0.237c0.004,0.083,0.008,0.166,0.01,0.249
			c0.002,0.084,0.003,0.161,0.004,0.233c0,0.063-0.001,0.125-0.007,0.186c-0.005,0.061-0.01,0.119-0.013,0.177s-0.003,0.114,0,0.169
			c0.004,0.054,0.016,0.107,0.035,0.158c0.007,0.02,0.017,0.034,0.028,0.045c0.011,0.01,0.025,0.017,0.04,0.021
			s0.032,0.008,0.05,0.009s0.038,0.001,0.06,0.001h0.011c0.027,0,0.053,0.006,0.078,0.017c0.024,0.011,0.045,0.025,0.063,0.044
			c0.019,0.018,0.033,0.039,0.044,0.063c0.011,0.024,0.017,0.05,0.017,0.077c0,0.028-0.006,0.054-0.017,0.078
			c-0.011,0.024-0.025,0.046-0.044,0.064c-0.018,0.018-0.039,0.032-0.063,0.042C10.243,11.4,10.218,11.405,10.19,11.405z"/>
		<path d="M9.979,11.205c0-0.028,0.005-0.054,0.015-0.078c0.01-0.024,0.024-0.045,0.042-0.064c0.018-0.018,0.04-0.032,0.064-0.042
			c0.024-0.011,0.051-0.016,0.079-0.016h0.096c0.061,0,0.119-0.002,0.175-0.008c0.056-0.005,0.105-0.016,0.148-0.032
			c0.043-0.016,0.078-0.039,0.104-0.069c0.027-0.03,0.041-0.069,0.042-0.119c0.001-0.019,0.001-0.034,0-0.047
			c0-0.012-0.002-0.026-0.007-0.044s-0.01-0.04-0.019-0.068c-0.008-0.028-0.019-0.068-0.033-0.119l0.368-0.104
			c0.016,0.041,0.031,0.095,0.044,0.161c0.013,0.066,0.023,0.14,0.03,0.219c0.001,0.025,0.004,0.052,0.009,0.078
			c0.004,0.027,0.011,0.053,0.021,0.075s0.023,0.041,0.04,0.057c0.017,0.015,0.039,0.021,0.066,0.021
			c0.028,0,0.054,0.005,0.079,0.016c0.024,0.01,0.046,0.024,0.064,0.042c0.018,0.019,0.032,0.04,0.043,0.064
			c0.011,0.024,0.016,0.05,0.016,0.078s-0.005,0.054-0.016,0.078s-0.025,0.046-0.043,0.064c-0.019,0.018-0.04,0.032-0.064,0.042
			c-0.024,0.011-0.05,0.016-0.077,0.016c-0.081,0-0.15-0.013-0.208-0.037c-0.058-0.025-0.107-0.058-0.148-0.098
			c-0.038,0.025-0.082,0.047-0.131,0.063s-0.102,0.03-0.158,0.041s-0.113,0.019-0.172,0.023c-0.059,0.004-0.118,0.007-0.175,0.007
			h-0.096c-0.028,0-0.054-0.005-0.079-0.016c-0.024-0.01-0.046-0.024-0.064-0.042c-0.018-0.019-0.032-0.04-0.042-0.064
			C9.984,11.259,9.979,11.233,9.979,11.205z M11.19,11.859l-0.243,0.244l-0.24-0.24l-0.238,0.238l-0.245-0.245l0.243-0.244
			l0.241,0.241l0.238-0.238L11.19,11.859z"/>
		<path d="M11.067,11.205c0-0.028,0.005-0.054,0.016-0.078c0.01-0.024,0.024-0.045,0.042-0.064c0.018-0.018,0.039-0.032,0.063-0.042
			c0.024-0.011,0.051-0.016,0.079-0.016h0.13h0.057c0.031,0,0.064-0.001,0.098-0.004c0.034-0.002,0.066-0.007,0.096-0.015
			c0.03-0.008,0.057-0.019,0.08-0.032c0.023-0.013,0.04-0.031,0.05-0.054c0.007-0.016,0.01-0.038,0.01-0.068
			c0-0.021-0.006-0.051-0.018-0.092c-0.012-0.04-0.027-0.085-0.046-0.135c-0.02-0.049-0.042-0.101-0.066-0.154
			c-0.024-0.055-0.049-0.105-0.075-0.153l0.362-0.18c0.023,0.053,0.047,0.109,0.07,0.169c0.023,0.061,0.044,0.121,0.063,0.183
			s0.034,0.123,0.045,0.185c0.012,0.061,0.017,0.119,0.017,0.175c0,0.085-0.015,0.163-0.045,0.234
			c-0.036,0.079-0.084,0.144-0.146,0.196c-0.062,0.053-0.135,0.091-0.222,0.115c-0.05,0.014-0.099,0.022-0.146,0.025
			s-0.09,0.005-0.13,0.005h-0.173h-0.011c-0.028,0-0.054-0.005-0.079-0.016c-0.024-0.01-0.045-0.024-0.063-0.042
			c-0.018-0.019-0.032-0.04-0.042-0.064C11.073,11.259,11.067,11.233,11.067,11.205z M11.694,9.404l0.281,0.28l-0.281,0.281
			l-0.281-0.281L11.694,9.404z"/>
		<path d="M12.369,10.815c0.035,0.022,0.077,0.045,0.125,0.068c0.048,0.022,0.097,0.043,0.147,0.063
			c0.05,0.019,0.099,0.034,0.146,0.046s0.088,0.018,0.123,0.018c0.013,0,0.029-0.001,0.049-0.002C12.978,11.006,13,11.003,13.022,11
			c0.022-0.003,0.045-0.009,0.067-0.015c0.023-0.007,0.044-0.015,0.063-0.024c0.019-0.011,0.034-0.022,0.046-0.036
			c0.012-0.015,0.018-0.031,0.019-0.051c0.001-0.032-0.009-0.069-0.03-0.111c-0.021-0.041-0.048-0.084-0.083-0.129
			c-0.035-0.046-0.076-0.091-0.122-0.137s-0.093-0.091-0.142-0.133c-0.049-0.043-0.098-0.083-0.147-0.119
			c-0.049-0.037-0.094-0.068-0.135-0.095l0.224-0.333c0.082,0.058,0.163,0.122,0.244,0.192c0.081,0.071,0.155,0.146,0.224,0.227
			c0.068,0.079,0.127,0.162,0.177,0.247s0.085,0.171,0.107,0.256c0.007,0.024,0.011,0.049,0.014,0.074
			c0.002,0.024,0.003,0.049,0.003,0.071c0,0.078-0.015,0.15-0.045,0.216c-0.03,0.065-0.073,0.122-0.127,0.168
			c-0.055,0.048-0.12,0.085-0.196,0.111c-0.076,0.026-0.16,0.039-0.25,0.039c-0.007,0-0.014,0-0.021-0.001c-0.006,0-0.013,0-0.02,0
			c-0.058,0-0.118-0.007-0.179-0.019c-0.061-0.013-0.122-0.028-0.181-0.049c-0.06-0.021-0.118-0.044-0.174-0.071
			c-0.056-0.026-0.108-0.055-0.156-0.084L12.369,10.815z"/>
		<path d="M14.906,11.405c-0.004,0-0.016-0.001-0.035-0.002s-0.042-0.004-0.07-0.009c-0.027-0.004-0.058-0.011-0.092-0.02
			c-0.034-0.01-0.068-0.022-0.103-0.038c-0.092-0.044-0.164-0.104-0.214-0.181c-0.051-0.076-0.076-0.165-0.076-0.266
			c0-0.168,0.075-0.344,0.224-0.524c0.012-0.015,0.021-0.026,0.03-0.036c0.008-0.009,0.015-0.018,0.022-0.025
			c0.007-0.007,0.013-0.015,0.02-0.021c0.006-0.007,0.014-0.014,0.022-0.022c-0.01-0.008-0.02-0.017-0.03-0.023
			c-0.01-0.008-0.018-0.015-0.025-0.021l-0.022-0.021l0.251-0.308c0.043,0.032,0.095,0.075,0.155,0.13
			c0.06,0.054,0.129,0.124,0.208,0.208c0.218,0.249,0.328,0.471,0.328,0.664c0,0.1-0.024,0.188-0.071,0.264
			c-0.048,0.077-0.114,0.138-0.198,0.181c-0.03,0.015-0.06,0.026-0.09,0.035s-0.061,0.016-0.089,0.021
			c-0.029,0.005-0.056,0.008-0.081,0.011C14.943,11.404,14.923,11.405,14.906,11.405z M15.151,10.89
			c0-0.025-0.008-0.056-0.025-0.088c-0.017-0.033-0.039-0.067-0.066-0.104s-0.058-0.072-0.092-0.108
			c-0.034-0.037-0.067-0.072-0.101-0.106c-0.023,0.025-0.047,0.054-0.072,0.086c-0.025,0.031-0.048,0.065-0.07,0.101
			c-0.021,0.035-0.038,0.071-0.052,0.109c-0.014,0.037-0.02,0.074-0.018,0.11c0.001,0.021,0.01,0.038,0.029,0.054
			c0.019,0.015,0.041,0.027,0.067,0.036c0.025,0.01,0.053,0.017,0.082,0.021c0.028,0.004,0.053,0.007,0.073,0.007
			c0.025,0,0.053-0.002,0.082-0.006c0.029-0.004,0.056-0.011,0.08-0.02c0.024-0.01,0.044-0.021,0.06-0.037
			C15.143,10.931,15.151,10.913,15.151,10.89z"/>
		<path d="M16.316,11.405c-0.104,0-0.192-0.013-0.267-0.039c-0.074-0.025-0.139-0.065-0.192-0.118
			c-0.034-0.033-0.06-0.069-0.078-0.106c-0.018-0.037-0.031-0.073-0.039-0.109c-0.008-0.036-0.013-0.069-0.014-0.102
			c-0.001-0.032-0.001-0.06-0.001-0.082v-0.02c0-0.031,0.001-0.076,0.003-0.135s0.002-0.128,0.002-0.207s0-0.166-0.001-0.262
			c0-0.096-0.003-0.19-0.007-0.285s-0.009-0.187-0.017-0.274c-0.007-0.088-0.017-0.164-0.03-0.229l0.378-0.115
			c0.011,0.056,0.02,0.121,0.027,0.196c0.007,0.076,0.012,0.155,0.017,0.237c0.004,0.083,0.008,0.166,0.01,0.249
			c0.002,0.084,0.003,0.161,0.004,0.233c0,0.063-0.001,0.125-0.007,0.186c-0.005,0.061-0.01,0.119-0.013,0.177s-0.003,0.114,0,0.169
			c0.004,0.054,0.016,0.107,0.035,0.158c0.007,0.02,0.017,0.034,0.028,0.045c0.011,0.01,0.025,0.017,0.04,0.021
			s0.032,0.008,0.05,0.009s0.038,0.001,0.06,0.001h0.011c0.027,0,0.053,0.006,0.078,0.017c0.024,0.011,0.045,0.025,0.063,0.044
			c0.019,0.018,0.033,0.039,0.044,0.063c0.011,0.024,0.017,0.05,0.017,0.077c0,0.028-0.006,0.054-0.017,0.078
			c-0.011,0.024-0.025,0.046-0.044,0.064c-0.018,0.018-0.039,0.032-0.063,0.042C16.369,11.4,16.344,11.405,16.316,11.405z"/>
		<path d="M16.114,11.205c0-0.028,0.005-0.054,0.016-0.078c0.011-0.024,0.025-0.045,0.043-0.063s0.04-0.032,0.064-0.043
			c0.025-0.01,0.05-0.016,0.078-0.016h0.011h0.417c0.024,0,0.053-0.005,0.084-0.015c0.031-0.011,0.062-0.023,0.09-0.04
			s0.054-0.035,0.075-0.056s0.033-0.042,0.037-0.063c0.002-0.042-0.005-0.088-0.023-0.137c-0.018-0.049-0.042-0.1-0.074-0.15
			s-0.068-0.102-0.109-0.153c-0.042-0.051-0.084-0.1-0.129-0.146c-0.044-0.047-0.089-0.09-0.134-0.129
			c-0.044-0.04-0.086-0.074-0.124-0.103l0.034-0.349l1.163-0.487l0.147,0.349l-0.96,0.392c0.058,0.055,0.111,0.106,0.158,0.158
			c0.047,0.051,0.09,0.102,0.129,0.152c0.04,0.051,0.075,0.102,0.108,0.153c0.032,0.051,0.063,0.104,0.09,0.158l0.013,0.022
			l-0.001-0.001c0.02,0.035,0.039,0.07,0.058,0.105s0.04,0.07,0.062,0.105c0.02,0.032,0.042,0.062,0.066,0.089
			c0.024,0.028,0.05,0.052,0.079,0.073s0.059,0.038,0.092,0.05c0.032,0.013,0.067,0.019,0.104,0.02h-0.001h0.053
			c0.028,0,0.054,0.006,0.079,0.016c0.024,0.011,0.045,0.025,0.064,0.043c0.018,0.018,0.032,0.039,0.042,0.063
			c0.01,0.024,0.016,0.05,0.016,0.078s-0.005,0.054-0.016,0.078c-0.01,0.024-0.024,0.046-0.042,0.064
			c-0.019,0.018-0.04,0.032-0.064,0.042c-0.024,0.011-0.051,0.016-0.079,0.016h-0.01c-0.064,0-0.121-0.005-0.171-0.013
			c-0.05-0.009-0.1-0.021-0.148-0.037c-0.051-0.019-0.098-0.043-0.142-0.074s-0.084-0.066-0.123-0.105
			c-0.009,0.012-0.02,0.024-0.032,0.037s-0.023,0.024-0.036,0.036c-0.032,0.029-0.065,0.053-0.101,0.072
			c-0.035,0.019-0.072,0.034-0.109,0.047c-0.037,0.012-0.075,0.021-0.114,0.026c-0.039,0.005-0.078,0.009-0.116,0.011h-0.413
			c-0.027,0-0.053-0.005-0.078-0.016c-0.024-0.01-0.046-0.024-0.064-0.042c-0.019-0.019-0.033-0.04-0.043-0.064
			S16.114,11.233,16.114,11.205z M17.525,9.043l-1.048,0.443l0.01-0.19l0.968-0.403L17.525,9.043z"/>
		<path d="M17.637,11.206c0-0.025,0.005-0.051,0.015-0.074c0.01-0.023,0.024-0.044,0.041-0.062c0.017-0.019,0.037-0.033,0.06-0.045
			c0.023-0.011,0.048-0.018,0.074-0.02c0.063,0,0.117-0.017,0.16-0.051s0.081-0.079,0.112-0.135s0.058-0.119,0.08-0.19
			s0.043-0.145,0.062-0.219l0.337,0.061c-0.007,0.03-0.015,0.064-0.025,0.104s-0.019,0.08-0.026,0.122
			c-0.008,0.042-0.015,0.083-0.02,0.123c-0.005,0.04-0.006,0.075-0.003,0.106c0.003,0.03,0.011,0.054,0.023,0.071
			s0.032,0.023,0.058,0.02c0.034-0.003,0.064-0.015,0.092-0.035c0.027-0.021,0.052-0.049,0.074-0.081
			c0.022-0.033,0.042-0.07,0.058-0.111c0.017-0.042,0.031-0.084,0.044-0.128c0.012-0.044,0.022-0.088,0.03-0.131
			c0.008-0.043,0.015-0.082,0.02-0.117l0.321,0.054c-0.001,0.025-0.004,0.057-0.009,0.094s-0.01,0.076-0.014,0.117
			c-0.004,0.041-0.006,0.082-0.006,0.123s0.004,0.077,0.014,0.11c0.009,0.032,0.025,0.059,0.046,0.079
			c0.021,0.02,0.052,0.03,0.09,0.03c0.023,0,0.048-0.004,0.072-0.013c0.024-0.008,0.046-0.019,0.066-0.034
			c0.019-0.015,0.035-0.032,0.047-0.052c0.012-0.021,0.018-0.043,0.018-0.068c0-0.044-0.007-0.093-0.021-0.146
			c-0.014-0.053-0.032-0.104-0.052-0.156s-0.042-0.102-0.064-0.147c-0.022-0.047-0.041-0.086-0.056-0.118l0.314-0.176
			c0.005,0.011,0.014,0.03,0.026,0.058s0.027,0.061,0.043,0.1c0.016,0.038,0.033,0.082,0.05,0.131
			c0.018,0.049,0.033,0.099,0.048,0.151c0.014,0.052,0.026,0.105,0.035,0.16s0.014,0.108,0.014,0.16c0,0.084-0.012,0.16-0.035,0.228
			c-0.023,0.067-0.058,0.125-0.105,0.171s-0.105,0.084-0.176,0.11s-0.153,0.039-0.248,0.04c-0.045,0-0.087-0.004-0.124-0.013
			s-0.07-0.021-0.1-0.037c-0.03-0.016-0.056-0.034-0.079-0.055c-0.023-0.021-0.044-0.044-0.062-0.067
			c-0.021,0.026-0.042,0.05-0.065,0.07c-0.023,0.021-0.05,0.038-0.08,0.053c-0.03,0.016-0.063,0.026-0.101,0.035
			s-0.079,0.013-0.126,0.014c-0.042,0.001-0.079-0.003-0.112-0.011c-0.034-0.008-0.064-0.02-0.092-0.034
			c-0.028-0.016-0.053-0.034-0.076-0.056c-0.022-0.021-0.043-0.045-0.063-0.071c-0.018,0.022-0.038,0.042-0.061,0.062
			c-0.023,0.019-0.05,0.035-0.081,0.05s-0.067,0.025-0.109,0.034s-0.089,0.013-0.145,0.013h-0.022
			c-0.026-0.002-0.051-0.008-0.074-0.019c-0.023-0.012-0.043-0.025-0.06-0.043c-0.017-0.019-0.03-0.039-0.041-0.063
			S17.637,11.233,17.637,11.206z M19.497,9.866l-0.243,0.244l-0.24-0.24l-0.238,0.237L18.53,9.863l0.243-0.244l0.24,0.24
			l0.238-0.237L19.497,9.866z M18.788,9.499l0.225-0.226L19.24,9.5l-0.225,0.226L18.788,9.499z"/>
		<path d="M19.986,11.907c0.119-0.023,0.227-0.053,0.325-0.089c0.098-0.036,0.184-0.076,0.257-0.12
			c0.074-0.045,0.135-0.092,0.184-0.142s0.083-0.101,0.103-0.151c-0.036,0-0.075-0.001-0.115-0.002s-0.074-0.003-0.1-0.005
			c-0.098-0.008-0.188-0.03-0.269-0.064c-0.081-0.035-0.146-0.083-0.193-0.143c-0.036-0.046-0.061-0.094-0.076-0.148
			c-0.015-0.053-0.022-0.109-0.022-0.168c0-0.046,0.004-0.092,0.013-0.138s0.02-0.091,0.035-0.134
			c0.016-0.044,0.033-0.085,0.054-0.124c0.021-0.038,0.042-0.074,0.066-0.105c0.05-0.063,0.106-0.111,0.167-0.145
			c0.06-0.032,0.124-0.048,0.19-0.048c0.143,0,0.271,0.063,0.386,0.187c0.041,0.046,0.077,0.097,0.109,0.153
			s0.059,0.117,0.082,0.181s0.04,0.13,0.052,0.2c0.012,0.069,0.018,0.14,0.018,0.211c0,0.021-0.001,0.044-0.002,0.065
			c-0.001,0.022-0.003,0.043-0.005,0.063c-0.01,0.099-0.032,0.19-0.066,0.277s-0.078,0.166-0.131,0.239s-0.116,0.14-0.187,0.198
			c-0.071,0.06-0.148,0.112-0.231,0.157c-0.083,0.045-0.171,0.083-0.264,0.113s-0.188,0.054-0.286,0.068L19.986,11.907z
			 M20.606,10.583c-0.018-0.003-0.038,0.003-0.061,0.019c-0.022,0.016-0.043,0.037-0.063,0.063c-0.02,0.026-0.036,0.056-0.049,0.088
			s-0.02,0.063-0.02,0.093c0,0.027,0.008,0.051,0.024,0.069s0.037,0.034,0.062,0.046s0.052,0.021,0.082,0.026
			s0.059,0.01,0.087,0.013h-0.001c0.022,0.002,0.047,0.003,0.075,0.003s0.056,0.001,0.083,0.001c0.008,0,0.015,0,0.02,0
			c0.005,0.001,0.009,0.001,0.012,0.001s0.007,0,0.011,0s0.009,0,0.017-0.001c-0.013-0.053-0.028-0.103-0.045-0.15
			c-0.018-0.048-0.038-0.091-0.06-0.128c-0.023-0.038-0.049-0.07-0.077-0.095C20.673,10.606,20.641,10.589,20.606,10.583z"/>
		<path d="M22.324,11.405c-0.019,0-0.045-0.002-0.079-0.004c-0.033-0.003-0.069-0.012-0.108-0.028
			c-0.019,0.104-0.054,0.204-0.104,0.299c-0.051,0.094-0.114,0.182-0.189,0.264c-0.075,0.083-0.16,0.158-0.257,0.228
			c-0.096,0.069-0.198,0.131-0.308,0.187l-0.231-0.32c0.06-0.03,0.12-0.063,0.181-0.1c0.062-0.036,0.119-0.074,0.175-0.114
			c0.055-0.04,0.106-0.082,0.154-0.125c0.047-0.044,0.089-0.089,0.124-0.135c0.036-0.047,0.063-0.094,0.084-0.143
			s0.03-0.098,0.03-0.147c0-0.002,0-0.006-0.001-0.011c0-0.006,0-0.011,0-0.016s-0.001-0.009-0.001-0.012
			c0-0.002-0.001-0.002-0.001,0.002v0.001c-0.006-0.049-0.014-0.096-0.025-0.14c-0.011-0.045-0.024-0.09-0.041-0.137
			c-0.017-0.046-0.035-0.095-0.058-0.146c-0.021-0.051-0.046-0.106-0.073-0.167l0.366-0.16c0.033,0.102,0.065,0.187,0.095,0.254
			s0.059,0.121,0.087,0.161c0.028,0.041,0.057,0.069,0.085,0.086s0.06,0.024,0.091,0.024h0.007c0.027,0,0.054,0.006,0.078,0.017
			s0.046,0.025,0.064,0.044c0.018,0.018,0.032,0.039,0.043,0.063c0.011,0.024,0.016,0.051,0.016,0.077
			c0,0.028-0.005,0.055-0.016,0.079s-0.025,0.045-0.043,0.063c-0.019,0.019-0.04,0.032-0.064,0.042
			C22.378,11.4,22.352,11.405,22.324,11.405z"/>
		<path d="M22.11,11.205c0-0.028,0.005-0.054,0.016-0.078c0.011-0.024,0.024-0.045,0.043-0.064c0.018-0.018,0.039-0.032,0.064-0.042
			c0.024-0.011,0.051-0.016,0.079-0.016c0.031,0,0.069,0,0.116-0.002c0.046-0.001,0.095-0.003,0.147-0.007
			c0.052-0.003,0.105-0.008,0.159-0.013c0.055-0.005,0.106-0.012,0.156-0.021c0.049-0.008,0.094-0.018,0.134-0.029
			s0.071-0.024,0.095-0.04c-0.086,0.01-0.164,0.013-0.235,0.011c-0.072-0.002-0.136-0.009-0.192-0.021s-0.105-0.028-0.146-0.049
			s-0.07-0.045-0.092-0.071v0.001c-0.022-0.028-0.044-0.067-0.063-0.115s-0.03-0.107-0.03-0.179c0-0.038,0.003-0.073,0.008-0.105
			c0.025-0.144,0.076-0.263,0.152-0.356l-0.002,0.002c0.046-0.062,0.098-0.106,0.155-0.137c0.057-0.029,0.117-0.045,0.181-0.045
			c0.064,0,0.127,0.016,0.189,0.047s0.119,0.073,0.17,0.127c0.036,0.041,0.069,0.088,0.098,0.141
			c0.029,0.052,0.055,0.107,0.075,0.167c0.021,0.059,0.036,0.12,0.048,0.184c0.012,0.064,0.018,0.128,0.018,0.192
			c0,0.02-0.001,0.038-0.002,0.058c-0.001,0.019-0.002,0.036-0.004,0.054c-0.01,0.088-0.032,0.163-0.066,0.227
			c-0.035,0.064-0.079,0.118-0.133,0.163s-0.114,0.081-0.184,0.108c-0.069,0.028-0.144,0.05-0.223,0.066
			c-0.08,0.016-0.162,0.026-0.249,0.032s-0.174,0.01-0.262,0.011h-0.021c-0.027,0-0.054-0.006-0.078-0.016
			c-0.024-0.011-0.046-0.025-0.063-0.043s-0.031-0.039-0.042-0.063S22.11,11.233,22.11,11.205z M22.803,9.109l0.28,0.28l-0.28,0.281
			l-0.281-0.281L22.803,9.109z M22.852,10.232c-0.02,0-0.039,0.005-0.059,0.018c-0.02,0.012-0.038,0.028-0.055,0.049
			s-0.029,0.043-0.04,0.069s-0.016,0.053-0.016,0.08c0,0.023,0.005,0.045,0.017,0.063c0.006,0.01,0.018,0.019,0.035,0.025
			c0.019,0.007,0.04,0.014,0.065,0.018c0.024,0.005,0.051,0.009,0.08,0.012c0.028,0.003,0.056,0.005,0.082,0.006s0.05,0.001,0.071,0
			s0.038-0.002,0.048-0.004c-0.008-0.038-0.018-0.076-0.03-0.115c-0.012-0.039-0.027-0.074-0.046-0.106s-0.04-0.059-0.065-0.08
			C22.914,10.246,22.885,10.234,22.852,10.232z"/>
	</g>
	<g>
		<g>
			<path style="fill-rule:evenodd;clip-rule:evenodd;" d="M37.21,6.904l-2.348,2.383c3.214,2.122,2.701,4.574-0.845,6.468
				C38.18,15.3,41.637,10.582,37.21,6.904z"/>
			<path style="fill-rule:evenodd;clip-rule:evenodd;" d="M38.377,3.957l2.537-2.648C39.167,2.053,37.746,1.753,38.602,0
				l-2.78,2.857c-0.548-0.124-1.117-0.192-1.703-0.192c-4.232,0-7.662,3.431-7.662,7.662c0,2.394,1.098,4.531,2.818,5.936
				l-2.699,2.752l3.114,0l1.556-1.584c0.888,0.359,1.857,0.559,2.874,0.559c4.232,0,7.662-3.431,7.662-7.662
				C41.782,7.671,40.43,5.332,38.377,3.957z M34.119,16.93c-0.719,0-1.411-0.117-2.059-0.329l2.679-2.728
				c1.956-1.992-1.349-3.951-1.452-4.138l-3.857-0.118c2.709,1.102,3.753,2.578,2.791,3.642l-2.201,2.244
				c-1.525-1.209-2.504-3.077-2.504-5.175c0-3.646,2.956-6.602,6.602-6.602c0.274,0,0.543,0.019,0.809,0.051l-5.269,5.415
				l3.593,0.115l4.378-4.569c1.857,1.168,3.092,3.235,3.092,5.591C40.722,13.974,37.766,16.93,34.119,16.93z"/>
		</g>
	</g>
</g>
</svg>
