<?xml version="1.0" encoding="utf-8"?>
<!-- Generator: Adobe Illustrator 20.0.0, SVG Export Plug-In . SVG Version: 6.00 Build 0)  -->
<svg version="1.1" id="Capa_1" xmlns="http://www.w3.org/2000/svg" xmlns:xlink="http://www.w3.org/1999/xlink" x="0px" y="0px"
	 viewBox="0 0 26 22" style="enable-background:new 0 0 26 22;" xml:space="preserve">
<g style="fill: #929292">
	<path d="M19.2,9.2C19.2,9.2,19.2,9.2,19.2,9.2C19.2,9.2,19.2,9.2,19.2,9.2C19.2,9.1,19.2,9.1,19.2,9.2c0-0.1,0-0.1,0-0.1
		c0,0,0,0,0,0c0,0,0,0,0,0c0,0,0,0,0,0c0,0,0,0,0,0c0,0,0,0,0,0c0,0,0,0,0,0c0,0,0,0,0,0c0,0,0,0,0,0c0,0,0,0,0,0c0,0,0,0,0,0
		c0,0,0,0-0.1,0l-7.8-4.5l4.5-2.8l7.6,4.3l-3.2,2c-0.2,0.2-0.3,0.5-0.2,0.7c0.2,0.2,0.5,0.3,0.7,0.2l3.9-2.5
		c0.2-0.1,0.3-0.3,0.2-0.5c0-0.2-0.1-0.4-0.3-0.5l-8.6-4.9c-0.2-0.1-0.4-0.1-0.5,0L9.8,3.9c0,0,0,0,0,0L7,5.7c0,0,0,0,0,0L1.5,9.2
		C1.3,9.3,1.3,9.4,1.3,9.6c0,0.2,0.1,0.4,0.3,0.5l8.6,4.9c0.1,0,0.2,0.1,0.3,0.1c0.1,0,0.2,0,0.3-0.1l3.9-2.5
		c0.2-0.2,0.3-0.5,0.2-0.7c-0.2-0.2-0.5-0.3-0.7-0.2l-3.7,2.3L2.8,9.6l4.5-2.8l8.1,4.6v6.1c0,0.2,0.1,0.4,0.3,0.5
		c0.1,0,0.2,0.1,0.3,0.1c0.1,0,0.2,0,0.3-0.1l2.8-1.7c0.2-0.1,0.2-0.3,0.2-0.4L19.2,9.2C19.2,9.3,19.2,9.3,19.2,9.2
		C19.2,9.2,19.2,9.2,19.2,9.2z M16.5,16.4V11c0-0.2-0.1-0.4-0.3-0.5L8.3,6.1L10.1,5l7.6,4.3L17,9.7c-0.2,0.2-0.3,0.5-0.2,0.7
		c0.1,0.2,0.3,0.2,0.5,0.2c0.1,0,0.2,0,0.3-0.1l0.6-0.4v5.1L16.5,16.4z"/>
	<path d="M23.9,7.5L20,9.9c-0.2,0.2-0.3,0.5-0.2,0.7c0.1,0.2,0.3,0.2,0.5,0.2c0.1,0,0.2,0,0.3-0.1l3.9-2.5c0.2-0.2,0.3-0.5,0.2-0.7
		C24.5,7.4,24.2,7.3,23.9,7.5z"/>
	<path d="M14,13.7L10.4,16L2,11.3c-0.3-0.1-0.6-0.1-0.7,0.2c-0.1,0.3-0.1,0.6,0.2,0.7l8.6,4.9c0.1,0,0.2,0.1,0.3,0.1
		c0.1,0,0.2,0,0.3-0.1l3.9-2.5c0.2-0.2,0.3-0.5,0.2-0.7C14.6,13.6,14.3,13.5,14,13.7z"/>
	<path d="M23.9,9.6L20,12.1c-0.2,0.2-0.3,0.5-0.2,0.7c0.1,0.2,0.3,0.2,0.5,0.2c0.1,0,0.2,0,0.3-0.1l3.9-2.5c0.2-0.2,0.3-0.5,0.2-0.7
		C24.5,9.5,24.2,9.4,23.9,9.6z"/>
	<path d="M14,15.8l-3.7,2.3L2,13.4c-0.3-0.1-0.6-0.1-0.7,0.2c-0.1,0.3-0.1,0.6,0.2,0.7l8.6,4.9c0.1,0,0.2,0.1,0.3,0.1
		c0.1,0,0.2,0,0.3-0.1l3.9-2.5c0.2-0.2,0.3-0.5,0.2-0.7C14.6,15.7,14.3,15.7,14,15.8z"/>
	<path d="M23.9,11.7L20,14.2c-0.2,0.2-0.3,0.5-0.2,0.7c0.1,0.2,0.3,0.2,0.5,0.2c0.1,0,0.2,0,0.3-0.1l3.9-2.5
		c0.2-0.2,0.3-0.5,0.2-0.7C24.5,11.6,24.2,11.6,23.9,11.7z"/>
	<path d="M14,17.9l-3.7,2.3L2,15.5c-0.3-0.1-0.6-0.1-0.7,0.2c-0.1,0.3-0.1,0.6,0.2,0.7l8.6,4.9c0.1,0,0.2,0.1,0.3,0.1
		c0.1,0,0.2,0,0.3-0.1l3.9-2.5c0.2-0.2,0.3-0.5,0.2-0.7C14.6,17.9,14.3,17.8,14,17.9z"/>
</g>
</svg>
