<?xml version="1.0" encoding="utf-8"?>
<!-- Generator: Adobe Illustrator 20.0.0, SVG Export Plug-In . SVG Version: 6.00 Build 0)  -->
<svg version="1.1" id="Capa_1" xmlns="http://www.w3.org/2000/svg" xmlns:xlink="http://www.w3.org/1999/xlink" x="0px" y="0px"
	 viewBox="0 0 26 22" style="enable-background:new 0 0 26 22;" xml:space="preserve">
<g>
	<path d="M17.6,0.1H8.4c-0.9,0-1.6,0.7-1.6,1.6v18.7c0,0.9,0.7,1.6,1.6,1.6h9.2c0.9,0,1.6-0.7,1.6-1.6V1.7
		C19.2,0.8,18.5,0.1,17.6,0.1z M10.7,1.1h4.5c0.1,0,0.2,0.2,0.2,0.4s-0.1,0.4-0.2,0.4h-4.5c-0.1,0-0.2-0.2-0.2-0.4
		C10.5,1.3,10.6,1.1,10.7,1.1z M13,20.4c-0.6,0-1-0.5-1-1c0-0.6,0.5-1,1-1c0.6,0,1,0.5,1,1C14,20,13.6,20.4,13,20.4z M18,16.9H8V2.8
		h10L18,16.9z"/>
</g>
</svg>
