<?xml version="1.0" encoding="utf-8"?>
<!-- Generator: Adobe Illustrator 20.0.0, SVG Export Plug-In . SVG Version: 6.00 Build 0)  -->
<svg version="1.1" id="Capa_1" xmlns="http://www.w3.org/2000/svg" xmlns:xlink="http://www.w3.org/1999/xlink" x="0px" y="0px"
	 viewBox="0 0 44 44" style="enable-background:new 0 0 44 44;" xml:space="preserve">
<g>
	<g style="fill:#fff;">
		<path d="M37,10.1h-1.1V7.7c0-3.5-2.9-6.4-6.4-6.4H16.2c-3.5,0-6.4,2.9-6.4,6.4v2.5h-1c-3.5,0-6.4,2.9-6.4,6.4v10.3
			c0,3.5,2.9,6.4,6.4,6.4h1v8.1c0,1.7,1.4,3.2,3.2,3.2h19.7c1.7,0,3.2-1.4,3.2-3.2v-8.1H37c3.5,0,6.4-2.9,6.4-6.4V16.5
			C43.4,13,40.5,10.1,37,10.1z M12.2,7.7c0-2.2,1.8-4,4-4h13.4c2.2,0,4,1.8,4,4v2.5H12.2V7.7z M33.5,41.2c0,0.4-0.3,0.8-0.8,0.8H13
			c-0.4,0-0.8-0.3-0.8-0.8V27.9h21.3V41.2z M40.9,26.8c0,2.2-1.8,4-4,4h-1.1v-2.8h1.6c0.7,0,1.2-0.5,1.2-1.2s-0.5-1.2-1.2-1.2H8
			c-0.7,0-1.2,0.5-1.2,1.2s0.5,1.2,1.2,1.2h1.8v2.8h-1c-2.2,0-4-1.8-4-4V16.5c0-2.2,1.8-4,4-4H37c2.2,0,4,1.8,4,4V26.8z"/>
		<path d="M15.1,33.8h15.3c0.7,0,1.2-0.5,1.2-1.2c0-0.7-0.5-1.2-1.2-1.2H15.1c-0.7,0-1.2,0.5-1.2,1.2C13.9,33.3,14.4,33.8,15.1,33.8
			z"/>
		<path d="M30.6,36.4H15.2c-0.7,0-1.2,0.5-1.2,1.2s0.5,1.2,1.2,1.2h15.3c0.7,0,1.2-0.5,1.2-1.2S31.2,36.4,30.6,36.4z"/>
		<path d="M37,14.9h-2.4c-0.7,0-1.2,0.5-1.2,1.2c0,0.7,0.5,1.2,1.2,1.2H37c0.7,0,1.2-0.5,1.2-1.2C38.2,15.4,37.6,14.9,37,14.9z"/>
	</g>
</g>
</svg>
