<?xml version="1.0" encoding="utf-8"?>
<!-- Generator: Adobe Illustrator 20.0.0, SVG Export Plug-In . SVG Version: 6.00 Build 0)  -->
<svg version="1.1" id="Capa_1" xmlns="http://www.w3.org/2000/svg" xmlns:xlink="http://www.w3.org/1999/xlink" x="0px" y="0px"
	 viewBox="0 0 44 44" style="enable-background:new 0 0 44 44;" xml:space="preserve">
<g>
	<g style="fill:#fff;">
		<path d="M45.1,5.2c-0.5-0.5-1.2-0.8-2-0.8H1.4c-0.8,0-1.5,0.3-2,0.8c-0.5,0.5-0.8,1.2-0.8,2v29.6c0,0.8,0.3,1.4,0.8,2
			c0.5,0.5,1.2,0.8,2,0.8h41.7c0.8,0,1.5-0.3,2-0.8c0.5-0.5,0.8-1.2,0.8-2V7.1C45.9,6.4,45.6,5.7,45.1,5.2z M43.3,36.7
			c0,0.2-0.1,0.2-0.2,0.2H1.4c-0.1,0-0.3-0.1-0.3-0.2V18.6h42.2L43.3,36.7L43.3,36.7z M43.3,12.1H1.1V7.1c0-0.1,0.1-0.2,0.3-0.2
			h41.7c0.2,0,0.2,0.1,0.2,0.2V12.1z"/>
		<rect x="32.6" y="23.4" width="5.6" height="5.6"/>
		<path d="M7.6,26h19.9c0.7,0,1.3-0.6,1.3-1.3s-0.6-1.3-1.3-1.3H7.6c-0.7,0-1.3,0.6-1.3,1.3S6.9,26,7.6,26z"/>
		<path d="M7.6,31.7h15.8c0.7,0,1.3-0.6,1.3-1.3s-0.6-1.3-1.3-1.3H7.6c-0.7,0-1.3,0.6-1.3,1.3S6.9,31.7,7.6,31.7z"/>
	</g>
</g>
</svg>
