<?xml version="1.0" encoding="utf-8"?>
<!-- Generator: Adobe Illustrator 20.0.0, SVG Export Plug-In . SVG Version: 6.00 Build 0)  -->
<svg version="1.1" id="Capa_1" xmlns="http://www.w3.org/2000/svg" xmlns:xlink="http://www.w3.org/1999/xlink" x="0px" y="0px"
	 viewBox="0 0 26 22" style="enable-background:new 0 0 26 22;" xml:space="preserve">
<g>
	<g>
		<path d="M13,12.4c2.5,0,4.6-2.4,4.6-5.4c0-4.1-2.1-5.4-4.6-5.4c-2.5,0-4.6,1.3-4.6,5.4C8.4,10,10.5,12.4,13,12.4z"/>
		<path d="M23.2,20.4l-2.3-5.2c-0.1-0.2-0.3-0.4-0.5-0.6l-3.6-1.9c-0.1,0-0.2,0-0.2,0c-1,0.8-2.2,1.2-3.5,1.2
			c-1.2,0-2.4-0.4-3.5-1.2c-0.1-0.1-0.2-0.1-0.2,0l-3.6,1.9c-0.2,0.1-0.4,0.3-0.5,0.6l-2.3,5.2c-0.2,0.4-0.1,0.8,0.1,1.1
			c0.2,0.3,0.6,0.5,1,0.5h18.2c0.4,0,0.8-0.2,1-0.5C23.3,21.1,23.3,20.7,23.2,20.4z"/>
	</g>
</g>
</svg>
