<?xml version="1.0" encoding="utf-8"?>
<!-- Generator: Adobe Illustrator 20.0.0, SVG Export Plug-In . SVG Version: 6.00 Build 0)  -->
<svg version="1.1" id="Capa_1" xmlns="http://www.w3.org/2000/svg" xmlns:xlink="http://www.w3.org/1999/xlink" x="0px" y="0px"
	 viewBox="0 0 26 22" style="enable-background:new 0 0 26 22;" xml:space="preserve">
<style type="text/css">
	.st0{fill:#010002;}
</style>
<g>
	<g>
		<path class="st0" d="M22.8,16.6c0,0.3-0.1,0.6-0.3,0.8l-2.8,2.7c-0.1,0.1-0.3,0.3-0.5,0.4c-0.2,0.1-0.4,0.2-0.6,0.2
			c0,0-0.1,0-0.1,0c-0.1,0-0.2,0-0.3,0c-0.3,0-0.7,0-1.3-0.1c-0.6-0.1-1.3-0.3-2.2-0.7c-0.8-0.4-1.8-0.9-2.9-1.6
			c-1.1-0.7-2.2-1.7-3.4-2.9c-1-1-1.8-1.9-2.4-2.7c-0.6-0.9-1.1-1.7-1.5-2.4c-0.4-0.7-0.7-1.4-0.9-2C3.5,7.7,3.4,7.2,3.3,6.8
			C3.2,6.4,3.2,6,3.2,5.8s0-0.4,0-0.4c0-0.2,0.1-0.4,0.2-0.6c0.1-0.2,0.2-0.4,0.4-0.5l2.8-2.8C6.7,1.3,7,1.2,7.2,1.2
			c0.2,0,0.3,0.1,0.5,0.2C7.8,1.5,7.9,1.6,8,1.8L10.2,6c0.1,0.2,0.2,0.5,0.1,0.7S10.2,7.2,10,7.4l-1,1c0,0-0.1,0.1-0.1,0.1
			c0,0.1,0,0.1,0,0.2c0.1,0.3,0.2,0.6,0.4,1c0.2,0.3,0.4,0.7,0.8,1.2s0.8,1,1.5,1.6c0.6,0.6,1.2,1.1,1.7,1.5
			c0.5,0.4,0.9,0.6,1.2,0.8c0.3,0.2,0.6,0.3,0.7,0.3l0.3,0.1c0,0,0.1,0,0.1,0c0.1,0,0.1,0,0.1-0.1l1.2-1.2c0.2-0.2,0.5-0.3,0.9-0.3
			c0.2,0,0.4,0,0.6,0.1h0l4,2.4C22.5,16.1,22.7,16.4,22.8,16.6z"/>
	</g>
</g>
</svg>
