<?xml version="1.0" encoding="utf-8"?>
<!-- Generator: Adobe Illustrator 20.0.0, SVG Export Plug-In . SVG Version: 6.00 Build 0)  -->
<svg version="1.1" id="Capa_1" xmlns="http://www.w3.org/2000/svg" xmlns:xlink="http://www.w3.org/1999/xlink" x="0px" y="0px"
	 viewBox="0 0 44 44" style="enable-background:new 255 255 255;" xml:space="preserve">
<g>
	<g id="check-circle-outline" style="fill:#fff;">
		<path d="M13,17.8l-3.1,3.1l9.9,9.9l22-22l-3.1-3.1L19.8,24.6L13,17.8z M39.6,22c0,9.7-7.9,17.6-17.6,17.6S4.4,31.7,4.4,22
			S12.3,4.4,22,4.4c1.8,0,3.3,0.2,4.8,0.7l3.5-3.5C27.7,0.7,24.9,0,22,0C9.9,0,0,9.9,0,22s9.9,22,22,22s22-9.9,22-22H39.6z"/>
	</g>
</g>
</svg>
