<?xml version="1.0" encoding="utf-8"?>
<!-- Generator: Adobe Illustrator 20.0.0, SVG Export Plug-In . SVG Version: 6.00 Build 0)  -->
<svg version="1.1" id="Capa_1" xmlns="http://www.w3.org/2000/svg" xmlns:xlink="http://www.w3.org/1999/xlink" x="0px" y="0px"
	 viewBox="0 0 26 22" style="enable-background:new 0 0 26 22;" xml:space="preserve">
<g>
	<g>
		<path d="M16.3,18.1H15V5.9h5.6l-2.4,3.8c-0.1,0.2-0.1,0.4,0.1,0.6c0.1,0,0.1,0.1,0.2,0.1c0.1,0,0.3-0.1,0.3-0.2L21,6.8l2.1,3.3
			c0.1,0.2,0.4,0.2,0.6,0.1c0.2-0.1,0.2-0.4,0.1-0.6l-2.4-3.8h0c0.3,0,0.6-0.3,0.6-0.6c0-0.3-0.3-0.6-0.6-0.6h-4.7
			c-0.3-0.4-0.7-0.7-1.1-0.8c-0.1-0.7-0.7-1.3-1.4-1.3c-0.8,0-1.4,0.6-1.4,1.3c-0.5,0.1-0.8,0.4-1.1,0.8H7c-0.3,0-0.6,0.3-0.6,0.6
			c0,0.3,0.3,0.6,0.6,0.6h0L4.6,9.7c-0.1,0.2-0.1,0.4,0.1,0.6c0.1,0,0.1,0.1,0.2,0.1c0.1,0,0.3-0.1,0.3-0.2l2.1-3.3l2.1,3.3
			c0.1,0.2,0.4,0.2,0.6,0.1c0.2-0.1,0.2-0.4,0.1-0.6L7.7,5.9h5.6v12.2H12c-0.8,0-1.4,0.6-1.4,1.4h7.2C17.7,18.7,17.1,18.1,16.3,18.1
			z"/>
		<path d="M10.4,10.7h-6c-0.1,0-0.2,0.1-0.2,0.2c0,1.8,1.4,3.2,3.2,3.2c1.8,0,3.2-1.4,3.2-3.2C10.6,10.8,10.5,10.7,10.4,10.7z"/>
		<path d="M24,10.7h-6c-0.1,0-0.2,0.1-0.2,0.2c0,1.8,1.4,3.2,3.2,3.2c1.8,0,3.2-1.4,3.2-3.2C24.2,10.8,24.1,10.7,24,10.7z"/>
	</g>
</g>
</svg>
