<?xml version="1.0" encoding="utf-8"?>
<!-- Generator: Adobe Illustrator 20.0.0, SVG Export Plug-In . SVG Version: 6.00 Build 0)  -->
<svg version="1.1" id="Capa_1" xmlns="http://www.w3.org/2000/svg" xmlns:xlink="http://www.w3.org/1999/xlink" x="0px" y="0px"
	 viewBox="0 0 51.3 52.6" style="enable-background:new 0 0 51.3 52.6;" xml:space="preserve">
<style type="text/css">
	.st0{fill:none;}
	.st1{fill:#73D0F4;}
	.st2{fill:#3D6889;}
</style>
<g>
	<g>
		<rect x="14.9" y="6.4" class="st0" width="21.4" height="12.1"/>
		<path class="st0" d="M45.7,23.7c0-1.4-1.2-2.6-2.6-2.6h-35c-1.4,0-2.6,1.2-2.6,2.6v0.8h40.2V23.7z M43.5,23.7
			c-0.2,0.2-0.6,0.4-0.9,0.4c-0.3,0-0.7-0.1-0.9-0.4c-0.2-0.2-0.4-0.6-0.4-0.9c0-0.3,0.1-0.7,0.4-0.9c0.2-0.2,0.6-0.4,0.9-0.4
			c0.3,0,0.7,0.1,0.9,0.4c0.2,0.2,0.4,0.6,0.4,0.9C43.9,23.1,43.7,23.4,43.5,23.7z"/>
		<path class="st0" d="M14.7,44.3h21.9V30.8H14.7V44.3z M18,33.6h14.8c0.7,0,1.3,0.6,1.3,1.3c0,0.7-0.6,1.3-1.3,1.3H18
			c-0.7,0-1.3-0.6-1.3-1.3C16.7,34.2,17.3,33.6,18,33.6z M18,39h6.9c0.7,0,1.3,0.6,1.3,1.3c0,0.7-0.6,1.3-1.3,1.3H18
			c-0.7,0-1.3-0.6-1.3-1.3C16.7,39.6,17.3,39,18,39z"/>
		<path class="st1" d="M5.5,37.3c0,1.4,1.2,2.6,2.6,2.6h4V29.6c0-0.7,0.6-1.3,1.3-1.3h24.4c0.7,0,1.3,0.6,1.3,1.3v10.3h4
			c1.4,0,2.6-1.2,2.6-2.6V27H5.5V37.3z"/>
		<path class="st2" d="M43.1,18.5h-4.3V5.1c0-0.7-0.6-1.3-1.3-1.3H13.7c-0.7,0-1.3,0.6-1.3,1.3v13.4H8.2c-2.8,0-5.1,2.3-5.1,5.1
			v13.6c0,2.8,2.3,5.1,5.1,5.1h4v3.2c0,0.7,0.6,1.3,1.3,1.3h24.4c0.7,0,1.3-0.6,1.3-1.3v-3.2h4c2.8,0,5.1-2.3,5.1-5.1V23.7
			C48.3,20.8,46,18.5,43.1,18.5z M45.7,37.3c0,1.4-1.2,2.6-2.6,2.6h-4V29.6c0-0.7-0.6-1.3-1.3-1.3H13.4c-0.7,0-1.3,0.6-1.3,1.3v10.3
			h-4c-1.4,0-2.6-1.2-2.6-2.6V27h40.2V37.3z M14.9,6.4h21.4v12.1H14.9V6.4z M5.5,23.7c0-1.4,1.2-2.6,2.6-2.6h35
			c1.4,0,2.6,1.2,2.6,2.6v0.8H5.5V23.7z M36.6,44.3H14.7V30.8h21.9V44.3z"/>
		<path class="st2" d="M42.6,21.5c-0.3,0-0.7,0.1-0.9,0.4c-0.2,0.2-0.4,0.6-0.4,0.9s0.1,0.7,0.4,0.9c0.2,0.2,0.6,0.4,0.9,0.4
			c0.3,0,0.7-0.1,0.9-0.4c0.2-0.2,0.4-0.6,0.4-0.9c0-0.3-0.1-0.7-0.4-0.9C43.3,21.6,42.9,21.5,42.6,21.5z"/>
		<path class="st2" d="M18,36.1h14.8c0.7,0,1.3-0.6,1.3-1.3c0-0.7-0.6-1.3-1.3-1.3H18c-0.7,0-1.3,0.6-1.3,1.3
			C16.7,35.6,17.3,36.1,18,36.1z"/>
		<path class="st2" d="M18,41.6h6.9c0.7,0,1.3-0.6,1.3-1.3c0-0.7-0.6-1.3-1.3-1.3H18c-0.7,0-1.3,0.6-1.3,1.3
			C16.7,41,17.3,41.6,18,41.6z"/>
	</g>
</g>
</svg>
