<?xml version="1.0" encoding="iso-8859-1"?>
<!-- Generator: Adobe Illustrator 20.0.0, SVG Export Plug-In . SVG Version: 6.00 Build 0)  -->
<svg version="1.1" id="Isolation_Mode" xmlns="http://www.w3.org/2000/svg" xmlns:xlink="http://www.w3.org/1999/xlink" x="0px"
	 y="0px" viewBox="0 0 39.83 23.141" style="enable-background:new 0 0 39.83 23.141;" xml:space="preserve">
<style>
.white{fill:#fff;}
</style>
<g class="white">
	<path style="" d="M36.043,7.813c0-0.72-0.135-1.395-0.405-2.025c-0.27-0.653-0.653-1.193-1.125-1.665
		c-0.472-0.495-1.035-0.855-1.688-1.147c-0.653-0.27-1.328-0.405-2.025-0.405h-9.742l2.992,3.015h6.75
		c0.293,0,0.585,0.045,0.855,0.157c0.292,0.113,0.54,0.27,0.742,0.495c0.203,0.202,0.36,0.45,0.472,0.72
		c0.112,0.27,0.18,0.563,0.18,0.855c0,0.315-0.068,0.608-0.18,0.878c-0.113,0.27-0.27,0.518-0.472,0.72
		c-0.202,0.225-0.45,0.383-0.742,0.495c-0.27,0.135-0.563,0.18-0.855,0.18h-6.75l0,0h-1.192h-1.8v2.992h2.992l0,0h6.75
		c0.315,0,0.608,0.068,0.9,0.18c0.27,0.112,0.495,0.293,0.698,0.495c0.203,0.203,0.36,0.45,0.472,0.72
		c0.112,0.27,0.18,0.563,0.18,0.855c0,0.293-0.068,0.585-0.18,0.855c-0.113,0.27-0.27,0.517-0.472,0.72
		c-0.202,0.225-0.45,0.382-0.742,0.495c-0.27,0.113-0.563,0.158-0.855,0.158h-6.75v3.015h6.75c0.72,0,1.395-0.135,2.025-0.405
		c0.653-0.292,1.215-0.652,1.688-1.147c0.472-0.472,0.855-1.012,1.125-1.665c0.27-0.63,0.405-1.305,0.405-2.025
		c0-1.485-0.517-2.745-1.575-3.757C35.525,10.536,36.043,9.276,36.043,7.813L36.043,7.813z"/>
	<polygon style="fill-rule:evenodd;clip-rule:evenodd;" points="23.386,19.279 7.651,19.279 7.689,20.299 
		23.386,20.299 23.386,19.279 	"/>
	<polygon style="fill-rule:evenodd;clip-rule:evenodd;" points="20.326,10.427 3.787,10.427 3.828,11.446 
		20.326,11.446 20.326,10.427 	"/>
	<polygon style="fill-rule:evenodd;clip-rule:evenodd;" points="23.386,17.882 12.794,17.882 12.82,18.901 
		23.386,18.901 23.386,17.882 	"/>
	<polygon style="fill-rule:evenodd;clip-rule:evenodd;" points="19.271,2.876 5.644,2.876 6.699,3.896 20.255,3.896 
		19.271,2.876 	"/>
	<polygon style="fill-rule:evenodd;clip-rule:evenodd;" points="21.908,4.336 8.439,4.336 9.389,5.355 22.893,5.355 
		21.908,4.336 	"/>
	<polygon style="fill-rule:evenodd;clip-rule:evenodd;" points="20.326,11.824 13.099,11.824 13.117,12.844 
		20.326,12.844 20.326,11.824 	"/>
</g>
</svg>
