<?xml version="1.0" encoding="iso-8859-1"?>
<!-- Generator: Adobe Illustrator 20.0.0, SVG Export Plug-In . SVG Version: 6.00 Build 0)  -->
<svg version="1.1" id="Layer_1" xmlns="http://www.w3.org/2000/svg" xmlns:xlink="http://www.w3.org/1999/xlink" x="0px" y="0px"
	 viewBox="0 0 46.582 27.848" style="enable-background:new 0 0 46.582 27.848;" xml:space="preserve">
<g>
	<path d="M4.828,24.078V6.897l12.099-2.178V21.9L4.828,24.078z M3.376,5.324v20.689l15.003-2.662V2.662L3.376,5.324z"/>
	<path d="M3.981,4.961l9.679-1.694l0.121-1.815L9.063,3.388C7.49,3.872,5.433,4.477,3.981,4.961z"/>
	<g>
		<path d="M26.138,15.003c0-0.242-0.121-0.484-0.363-0.605c-0.121-0.121-0.363-0.242-0.605-0.242c-0.363,0-0.605,0.121-0.726,0.242
			c-0.242,0.121-0.242,0.363-0.363,0.605H26.138z M26.743,15.487h-2.662v0.121c0,0.363,0.121,0.605,0.363,0.847
			c0.121,0.121,0.484,0.242,0.726,0.242c0.242,0,0.484,0,0.605-0.121c0.242-0.121,0.363-0.363,0.484-0.605l0.484,0.363
			c-0.242,0.242-0.363,0.484-0.726,0.605c-0.242,0.242-0.484,0.242-0.847,0.242c-0.484,0-0.847-0.121-1.21-0.484
			c-0.363-0.363-0.484-0.726-0.484-1.331c0-0.484,0.121-0.847,0.484-1.21c0.363-0.363,0.726-0.484,1.21-0.484
			c0.484,0,0.847,0.121,1.089,0.484c0.363,0.242,0.484,0.726,0.484,1.21V15.487z M27.711,14.277h-0.605v-0.484h0.605v-1.331h0.484
			v1.331H28.8v0.484h-0.605v2.783h-0.484V14.277z M31.946,15.487c0-0.363,0-0.726-0.242-0.968c-0.242-0.242-0.484-0.242-0.847-0.242
			c-0.242,0-0.605,0-0.726,0.242c-0.242,0.242-0.242,0.484-0.242,0.847c0,0.484,0,0.726,0.242,0.968
			c0.121,0.242,0.484,0.363,0.847,0.363c0.242,0,0.605-0.121,0.726-0.363C31.946,16.092,31.946,15.85,31.946,15.487z M32.551,13.793
			v3.267h-0.605v-0.605c-0.121,0.242-0.242,0.484-0.484,0.605c-0.121,0.121-0.363,0.121-0.605,0.121
			c-0.484,0-0.847-0.121-1.21-0.484c-0.242-0.242-0.363-0.726-0.363-1.21c0-0.605,0.121-0.968,0.363-1.331s0.605-0.484,1.089-0.484
			c0.363,0,0.605,0,0.726,0.121c0.242,0.121,0.363,0.363,0.484,0.605v-0.605H32.551z M34.244,15.487
			c0,0.363,0.121,0.605,0.242,0.847c0.242,0.242,0.484,0.363,0.847,0.363c0.363,0,0.605-0.121,0.726-0.363
			c0.242-0.242,0.363-0.605,0.363-0.968s-0.121-0.605-0.363-0.847c-0.121-0.242-0.363-0.242-0.726-0.242
			c-0.363,0-0.605,0-0.847,0.242C34.365,14.761,34.244,15.124,34.244,15.487z M33.64,11.495h0.605v2.904
			c0.121-0.242,0.242-0.484,0.484-0.605c0.242-0.121,0.484-0.121,0.726-0.121c0.484,0,0.847,0.121,1.089,0.484
			c0.363,0.363,0.484,0.726,0.484,1.331c0,0.484-0.121,0.968-0.484,1.21c-0.242,0.363-0.605,0.484-1.089,0.484
			c-0.242,0-0.484,0-0.726-0.121s-0.363-0.363-0.484-0.605v0.605H33.64V11.495z M37.995,16.697c0-0.121,0-0.242,0.121-0.242
			c0.121-0.121,0.121-0.121,0.242-0.121s0.242,0,0.363,0.121c0.121,0,0.121,0.121,0.121,0.242s0,0.242-0.121,0.363
			c-0.121,0-0.242,0.121-0.363,0.121s-0.121-0.121-0.242-0.121C37.995,16.939,37.995,16.818,37.995,16.697z M39.931,12.22
			c0-0.121,0-0.242,0.121-0.363c0,0,0.121-0.121,0.242-0.121c0.121,0,0.242,0.121,0.242,0.121c0.121,0.121,0.121,0.242,0.121,0.363
			c0,0.121,0,0.242-0.121,0.242c0,0.121-0.121,0.121-0.242,0.121c-0.121,0-0.242,0-0.242-0.121
			C39.931,12.462,39.931,12.341,39.931,12.22z M40.052,17.06v-3.267h0.484v3.267H40.052z M41.746,17.06v-3.267h0.484v0.726
			c0.242-0.363,0.363-0.484,0.484-0.726c0.242-0.121,0.484-0.121,0.726-0.121h0.121c0.121,0,0.121,0,0.242,0l-0.242,0.605
			l-0.121-0.121c-0.121,0-0.121,0-0.242,0c-0.242,0-0.484,0.121-0.605,0.363c-0.121,0.242-0.242,0.484-0.242,0.968v1.573H41.746z"/>
		<path d="M20.331,16.939l0.605-1.573l1.21,1.694h0.847c-0.121-0.363-0.484-0.726-0.726-1.089c-0.121-0.242-0.968-1.331-0.968-1.452
			l0.968-2.662h-0.605l-1.452,3.63L20.331,16.939z"/>
	</g>
</g>
<g>
</g>
<g>
</g>
<g>
</g>
<g>
</g>
<g>
</g>
<g>
</g>
</svg>
